<svg width="1015" height="1007" viewBox="0 0 1015 1007" fill="none" xmlns="http://www.w3.org/2000/svg">
<g clip-path="url(#clip0_1_452)">
<path d="M1015 0H0V1007H1015V0Z" fill="white"/>
<path d="M781.9 312.8L774 304.5C773.3 300.4 772.6 296.4 771.9 292.2L777.6 288.5L778.1 288.2C778.1 288 778 287.9 777.9 287.7C776.9 284.4 774.2 276.6 774 276L765.6 273L759.1 260.1C759.9 257.1 760.7 254.1 761.6 251L754.5 240.9C752.8 241.7 751.3 242.8 749.7 243.6C749.2 243.9 748.6 244.1 748 244.3L739.1 235.2C738.5 231.2 737.9 227.2 737.3 223.1L732.9 220.1L732.7 220L729 217.4L724.7 220.2L719.1 223.8C718.5 223.5 717.8 223.3 717.2 222.9C715.2 219 713.4 215.3 711.5 211.6C711.1 211.5 710.7 211.5 710.2 211.4C708 211.2 706 211.5 704 211.8L697.2 216.2L694.6 217.8L691.5 219.8L691.3 219.6C691.1 219.6 690.9 219.7 690.7 219.8H690.6C690.3 219.9 690.1 220.1 689.9 220.3L682.4 225.3L688.8 237.6L696.7 238H696.8C696.3 239.7 695.9 241.4 695.4 243.1H695.3L687 240.4L672.2 249.9L680.3 258.8L689.6 254.4L690 254.2L695 259.4C695.1 260 695.1 260.5 695 261.1C694.5 264.3 691 265.7 691.6 269.4C689.5 270.6 693 274.8 691 275.9V276C692.1 280.1 693.4 284.1 695 288C695.3 288.1 695.5 288.3 695.6 288.6C697.5 291.9 696.3 307.3 698.8 308.2C700.6 311.9 708.3 317.3 712.2 320.8C712.9 321.4 713.5 322 714.1 322.7C714.6 322.6 715 322.6 715.3 322.4C715.4 322.3 715.6 322.3 715.7 322.3C717.7 322.4 724.7 325.7 728 327.6C728.6 327.9 729.1 328.3 729.6 328.7C730.2 332.7 730.8 336.5 731.4 340.6C734.2 342.6 737 345 739.8 346.1C739.8 346.1 739.9 346.1 739.9 346.2C740.1 345.5 740.3 344.9 740.4 344.2C741 342.1 741.5 340.1 742.1 338L742.2 337.7L748.9 340L748.6 340.3L743.5 344.4L749.8 361.7L762.5 353.6L762.6 354.1L771.5 348.5C772.6 348.3 774.2 346.3 775.7 343.4C775.8 343.1 776 342.9 776.1 342.6C775.8 341.9 775.4 341.1 775 340.2C773.8 337.7 772.6 335.3 771.4 332.8C771.1 332.1 770.8 331.4 770.5 330.8L776.2 327.2L781.4 323.9C781.5 322.1 781.7 320.3 781.7 318.4C782.2 316.4 782.2 314.6 781.9 312.8ZM705.1 223.3L704.9 223.4C704.7 223.2 704.6 223.1 704.4 222.9L705.1 223.3ZM737.3 314.8C722.4 305.2 710.4 282 710.4 262.9C710.4 256 712 250.5 714.7 246.9C717.4 243.1 721.3 241.1 725.9 241.2L726 241.5L726.9 244.3L738.8 254.1L741.7 248.9L741.9 248.6C744.8 251.1 747.5 254 749.8 257C749.7 257.1 749 273.8 748.9 274C757.6 285.3 760.2 285.1 760.2 298.5C760.2 301.3 764 302.9 763.5 305.1L763.8 304.7C763.1 308 761.9 310.8 760.4 313C760.4 313.1 760.3 313.1 760.3 313.2C755.5 319.9 747 321 737.3 314.8Z" fill="#BBDBF5"/>
<path d="M772.9 329.3C773.1 325.8 773.6 322.5 773 318.5L765.1 310.2C764.4 305.9 763.7 301.7 762.9 297.2C763.6 296.8 764.3 296.3 765 296C766.4 295.3 767.8 294.6 769.3 293.9C768.4 291 765.5 282.3 765.2 281.6L756.8 278.6C754.6 274.3 752.5 270 750.3 265.7C751.1 262.7 751.9 259.7 752.8 256.6L745.7 246.5C744 247.3 742.5 248.4 740.9 249.2C740.4 249.5 739.8 249.7 739.2 249.9L730.3 240.8C729.7 236.8 729.1 232.8 728.5 228.7L723.9 225.5L720.2 222.9C719.3 226 718.5 228.9 717.6 231.8C714.4 230.5 711.4 230 708.3 228.3L702.6 217C699.9 216.4 697.6 216.9 695.1 217.2C695.7 220.9 696.3 224.6 696.9 228.8C694.7 230.3 692.3 231.6 689.9 232.8L682.4 225C681 225.1 679.6 226.8 677.5 230.9C679.4 234.7 681.3 238.6 683.3 242.5C682.4 245.8 681.5 249 680.6 252.4L672.2 249.6C672 253 671.7 256.4 672 260.3L680.1 268.7C680.8 273.2 681.5 277.5 682.2 281.8L676.2 285.2C677.3 289.3 678.6 293.4 680.2 297.3L688.4 300.2C690.6 304.7 692.7 309 694.8 313.2C694 316.3 693.2 319.1 692.5 322C694.5 325.5 696.8 328.9 699.4 332.1C699.9 332 700.3 332 700.6 331.8C701.9 331.1 703.1 330.4 704.3 329.6C704.9 329.2 705.4 329 706.2 329.3L710.7 333.9L714.9 338.2C715.5 342.2 716.1 346 716.7 350.1C719.5 352.2 722.3 354.6 725.2 355.7C725.4 355 725.6 354.4 725.7 353.7C726.3 351.5 726.9 349.3 727.5 347.1L736.7 350.2C738.7 354.1 740.7 358.1 742.6 362C745.1 362.3 747.6 362.2 750 361.6C749.4 357.5 748.8 353.7 748.2 349.9C750.6 348.7 752.7 347 755.2 346.2L762.8 354C764 353.7 765.8 351.4 767.4 348.1C767.1 347.4 766.7 346.6 766.3 345.7C765.1 343.2 763.9 340.8 762.7 338.3C762.3 337.5 762 336.7 761.7 336L764.3 326.4L772.9 329.3ZM722.7 324C707.8 314.4 695.8 291.2 695.8 272.1C695.8 253 707.9 245.2 722.7 254.8C737.6 264.4 749.6 287.6 749.6 306.7C749.7 325.8 737.6 333.5 722.7 324Z" fill="#B4CAE3"/>
<path d="M867.7 539.1L862.2 533.3C861.7 530.5 861.3 527.7 860.8 524.8L864.8 522.3L865.2 522.1L865.1 521.7C864.4 519.4 862.6 514 862.4 513.6L856.6 511.5L852.1 502.5C852.7 500.4 853.2 498.3 853.8 496.2C852.1 493.8 850.5 491.5 848.9 489.2C847.7 489.8 846.7 490.5 845.6 491.1C845.2 491.3 844.8 491.5 844.4 491.6L838.3 485.3C837.9 482.5 837.5 479.8 837 476.9L833.9 474.8L833.8 474.7L831.2 472.9L828.2 474.8L824.3 477.3C823.9 477.1 823.4 476.9 823 476.7L819.1 468.9C818.8 468.8 818.5 468.8 818.2 468.8C816.7 468.6 815.3 468.9 813.9 469.1L809.2 472.1L807.4 473.2L805.2 474.6L805.1 474.5C804.9 474.5 804.8 474.6 804.7 474.6C804.5 474.7 804.4 474.8 804.2 474.9L799 478.3L803.4 486.9L808.9 487.2H809C808.7 488.4 808.4 489.5 808 490.8H807.9L802.2 488.9L791.9 495.5L797.5 501.7L804 498.7L804.2 498.6L807.7 502.2C807.8 502.6 807.8 503 807.7 503.4C807.3 505.6 804.9 506.6 805.3 509.2C803.9 510 806.3 512.9 804.9 513.7V513.8C805.6 516.6 806.6 519.4 807.7 522.1C807.9 522.2 808 522.3 808.1 522.5C809.4 524.8 808.6 535.5 810.3 536.1C811.6 538.7 816.9 542.4 819.6 544.9C820.1 545.3 820.5 545.8 821 546.3C821.3 546.3 821.6 546.2 821.9 546.1C822 546.1 822.1 546 822.2 546.1C823.6 546.2 828.4 548.5 830.7 549.8C831.1 550 831.4 550.3 831.8 550.5C832.2 553.3 832.6 555.9 833.1 558.7C835 560.1 837 561.8 838.9 562.5H839C839.1 562 839.3 561.6 839.4 561.1C839.8 559.7 840.2 558.2 840.6 556.8C840.6 556.7 840.6 556.6 840.7 556.6L845.4 558.2L845.2 558.4L841.7 561.2L846.1 573.2L854.9 567.6L855 568L861.2 564.1C862 563.9 863.1 562.6 864.1 560.6C864.2 560.4 864.3 560.2 864.4 560C864.2 559.5 863.9 558.9 863.7 558.4C862.9 556.7 862 555 861.2 553.3C861 552.8 860.8 552.3 860.6 551.9L864.6 549.4L868.2 547.1C868.3 545.8 868.4 544.6 868.4 543.3C867.9 541.6 867.8 540.4 867.7 539.1ZM814.4 477L814.3 477.1C814.2 477 814.1 476.9 814 476.7L814.4 477ZM836.7 540.5C826.4 533.9 818 517.7 818 504.5C818 499.7 819.1 495.9 821 493.4C822.9 490.8 825.6 489.4 828.8 489.5L828.9 489.7L829.5 491.6L837.7 498.4L839.7 494.8L839.8 494.6C841.8 496.4 843.7 498.3 845.3 500.5C845.3 500.6 844.7 512.2 844.7 512.3C850.7 520.2 852.6 520 852.6 529.3C852.6 531.2 855.2 532.3 854.9 533.9L855.1 533.6C854.6 535.9 853.8 537.9 852.7 539.4L852.6 539.5C849.3 544.1 843.4 544.8 836.7 540.5Z" fill="#BBDBF5"/>
<path d="M861.4 550.6C861.5 548.1 861.9 545.9 861.5 543.1L856 537.3C855.5 534.3 855 531.4 854.5 528.3C855 528 855.4 527.7 856 527.4C857 526.9 858 526.4 859 526C858.4 524 856.4 517.9 856.2 517.5L850.4 515.4L845.9 506.4C846.5 504.3 847 502.3 847.6 500.1L842.7 493.1C841.5 493.7 840.5 494.4 839.4 495C839 495.2 838.6 495.4 838.2 495.5L832.1 489.2C831.7 486.4 831.3 483.7 830.8 480.8L827.6 478.6L825 476.8C824.4 478.9 823.8 480.9 823.2 483C821 482.1 818.9 481.7 816.8 480.6C815.4 477.9 814.1 475.3 812.9 472.8C811 472.4 809.4 472.7 807.7 472.9C808.1 475.5 808.5 478.1 809 481C807.4 482 805.8 483 804.2 483.8L799 478.4C798 478.5 797 479.7 795.6 482.5C796.9 485.1 798.3 487.8 799.6 490.6C799 492.9 798.4 495.1 797.7 497.4L791.9 495.5C791.8 497.9 791.6 500.2 791.8 502.9L797.4 508.7L798.8 517.8L794.6 520.2C795.3 523.1 796.3 525.9 797.4 528.6L803.1 530.6C804.6 533.7 806.1 536.7 807.5 539.6L805.9 545.7C807.3 548.1 808.9 550.5 810.7 552.7C811 552.7 811.3 552.6 811.6 552.5C812.5 552 813.4 551.5 814.2 551C814.6 550.7 815 550.6 815.5 550.8C816.5 551.9 817.6 552.9 818.6 554L821.5 557C821.9 559.8 822.3 562.4 822.8 565.2C824.8 566.6 826.7 568.3 828.7 569.1C828.8 568.6 829 568.2 829.1 567.7C829.5 566.2 829.9 564.7 830.3 563.1L836.7 565.2C838.1 567.9 839.5 570.7 840.8 573.4C842.5 573.6 844.2 573.5 845.9 573.1C845.5 570.3 845.1 567.6 844.6 565C846.2 564.1 847.7 563 849.5 562.4L854.8 567.8C855.7 567.6 856.9 566 858 563.7C857.8 563.2 857.5 562.6 857.3 562.1C856.5 560.4 855.6 558.7 854.8 557C854.5 556.4 854.3 555.9 854.1 555.4C854.7 553.1 855.4 550.8 855.9 548.7L861.4 550.6ZM826.6 546.9C816.3 540.3 807.9 524.1 807.9 510.9C807.9 497.7 816.3 492.3 826.6 498.9C836.9 505.5 845.3 521.7 845.3 534.9C845.3 548.1 836.9 553.5 826.6 546.9Z" fill="#B4CAE3"/>
<path d="M886.2 469.4L883.1 466.2C882.8 464.6 882.6 463 882.3 461.4L884.5 460L884.7 459.9C884.7 459.8 884.7 459.8 884.6 459.7C884.2 458.4 883.2 455.4 883.1 455.1L879.8 454C879 452.3 878.1 450.6 877.3 449L878.3 445.5L875.5 441.5C874.8 441.8 874.2 442.2 873.6 442.5C873.4 442.6 873.2 442.7 872.9 442.8L869.4 439.2C869.2 437.6 868.9 436.1 868.7 434.5L867 433.3L866.9 433.2L865.4 432.2L863.7 433.3L861.5 434.7C861.3 434.6 861 434.5 860.8 434.4C860 432.9 859.3 431.4 858.6 430C858.4 430 858.3 429.9 858.1 429.9C857.2 429.8 856.5 429.9 855.7 430L853 431.7L852 432.3L850.8 433.1L850.7 433C850.6 433 850.5 433 850.5 433.1C850.4 433.1 850.3 433.2 850.2 433.3L847.3 435.2L849.8 440L852.9 440.2H853L852.5 442.2H852.4L849.2 441.1L843.4 444.8L846.6 448.3L850.2 446.6L850.3 446.5L852.2 448.5C852.2 448.7 852.2 448.9 852.2 449.2C852 450.4 850.6 451 850.9 452.5C850.1 453 851.5 454.6 850.7 455C850.7 455 850.7 455 850.7 455.1C851.1 456.7 851.6 458.3 852.2 459.8C852.3 459.8 852.4 459.9 852.4 460C853.1 461.3 852.7 467.3 853.6 467.7C854.3 469.1 857.3 471.3 858.8 472.6C859.1 472.8 859.3 473.1 859.6 473.4C859.8 473.4 859.9 473.3 860.1 473.3C860.2 473.3 860.2 473.3 860.3 473.3C861.1 473.3 863.8 474.6 865.1 475.4C865.3 475.5 865.5 475.7 865.7 475.8C865.9 477.4 866.2 478.9 866.4 480.4C867.5 481.2 868.6 482.1 869.7 482.6C869.8 482.3 869.8 482.1 869.9 481.8C870.1 481 870.4 480.2 870.6 479.4V479.3L873.2 480.2L873.1 480.3L871.1 481.9L873.6 488.7L878.6 485.5V485.7L882.1 483.5C882.5 483.4 883.2 482.6 883.7 481.5C883.8 481.4 883.8 481.3 883.9 481.2C883.8 480.9 883.6 480.6 883.5 480.3C883 479.3 882.6 478.4 882.1 477.4C882 477.1 881.9 476.9 881.8 476.6L884 475.2L886 473.9C886 473.2 886.1 472.5 886.1 471.8C886.3 470.8 886.2 470.1 886.2 469.4ZM868.8 470.2C863 466.5 858.3 457.4 858.3 449.9C858.3 447.2 858.9 445.1 860 443.6C861 442.1 862.6 441.3 864.4 441.4V441.5L864.7 442.6L869.3 446.4L870.5 444.4L870.6 444.3C871.7 445.3 872.8 446.4 873.7 447.6L873.4 454.2C876.8 458.6 877.8 458.5 877.8 463.8C877.8 464.9 879.3 465.5 879.1 466.4L879.2 466.2C879 467.4 878.5 468.5 877.9 469.5L877.8 469.6C875.8 472.2 872.5 472.6 868.8 470.2Z" fill="#BBDBF5"/>
<path d="M882.7 475.9C882.8 474.5 883 473.2 882.7 471.7L879.6 468.5C879.3 466.8 879 465.2 878.7 463.4C879 463.2 879.2 463.1 879.5 462.9C880.1 462.6 880.6 462.4 881.2 462.1C880.9 461 879.7 457.6 879.6 457.3L876.3 456.1C875.5 454.4 874.6 452.7 873.8 451.1L874.8 447.6L872 443.6C871.3 443.9 870.7 444.3 870.1 444.6C869.9 444.7 869.7 444.8 869.4 444.9L865.9 441.3C865.7 439.7 865.4 438.2 865.2 436.6L863.4 435.4L861.9 434.4L860.9 437.9C859.7 437.4 858.5 437.2 857.3 436.5L855.1 432.1C854 431.9 853.1 432 852.2 432.2C852.4 433.7 852.7 435.1 852.9 436.7C852 437.3 851.1 437.8 850.2 438.3L847.3 435.2C846.8 435.2 846.2 435.9 845.4 437.5C846.1 439 846.9 440.5 847.7 442C847.4 443.3 847 444.5 846.7 445.8L843.4 444.7C843.3 446.1 843.3 447.5 843.3 448.9L846.5 452.2C846.8 453.9 847 455.6 847.3 457.3L844.9 458.6C845.3 460.2 845.8 461.8 846.5 463.3L849.7 464.4L852.2 469.5L851.3 473C852.1 474.4 853 475.7 854 476.9C854.2 476.9 854.3 476.8 854.5 476.8C855 476.5 855.5 476.3 856 475.9C856.2 475.7 856.5 475.7 856.7 475.8L858.4 477.6L860 479.3C860.2 480.9 860.5 482.4 860.7 483.9C861.8 484.7 862.9 485.6 864 486.1C864.1 485.8 864.1 485.6 864.2 485.3C864.4 484.4 864.7 483.6 864.9 482.7L868.5 483.9C869.3 485.4 870 487 870.8 488.5C871.8 488.6 872.7 488.6 873.7 488.3C873.5 486.7 873.2 485.2 873 483.7C873.9 483.2 874.7 482.6 875.7 482.2L878.7 485.3C879.2 485.2 879.9 484.3 880.5 483C880.4 482.7 880.2 482.4 880.1 482.1C879.6 481.1 879.2 480.2 878.7 479.2C878.6 478.9 878.4 478.6 878.3 478.3L879.3 474.6L882.7 475.9ZM863 473.8C857.2 470.1 852.5 461 852.5 453.5C852.5 446 857.2 443 863 446.7C868.8 450.4 873.5 459.5 873.5 467C873.5 474.5 868.9 477.5 863 473.8Z" fill="#B4CAE3"/>
<path d="M726.1 397.9L467.6 248.6C465.8 247.6 464.2 247.6 463 248.3L454.8 252.5L460.8 259V458.6C460.8 459.6 461.3 460.5 462.2 461L722.3 611.2L722.8 619.6L730.9 615.6C732.1 615.1 733.1 614.1 733.1 612.6V411C733 406 729.9 400.1 726.1 397.9Z" fill="#242A58"/>
<path d="M477.9 264.3L451.9 277.4V363.2L557.1 310L477.9 264.3Z" fill="#4B6FB5"/>
<path d="M505.7 403.1L451.9 408.6V424.7L505.7 414.2V403.1Z" fill="#4B6FB5"/>
<path d="M624.7 349L584.2 325.6L557.1 310L451.9 363.2V408.5L505.7 403V414.1L451.9 424.6V463.2C451.9 464.2 452.4 465.1 453.3 465.6L458.1 468.4L657.1 367.7L624.7 349Z" fill="#4B6FB5"/>
<path d="M458.7 253.2C454.9 251 451.8 253.3 451.8 258.4V277.4L477.8 264.2L458.7 253.2Z" fill="#4B6FB5"/>
<path d="M724.1 465.6V415.6C724.1 410.6 721 404.7 717.2 402.5L708.5 397.5L509.5 498.2L572.5 534.6L590.8 545.2L724.1 477.7V465.6Z" fill="#4B6FB5"/>
<path d="M724.1 585.8V575.7L717.6 579L724.1 585.8Z" fill="#4B6FB5"/>
<path d="M681.3 597.3L719.9 619.6C721.2 620.4 722.9 619.9 723.7 618.6C723.9 618.2 724.1 617.7 724.1 617.2V615L699.9 587.9L681.3 597.3Z" fill="#4B6FB5"/>
<path d="M717.6 579L699.9 587.9L724.1 615.1V585.8L717.6 579Z" fill="#4B6FB5"/>
<path d="M659.9 543.1L677.6 536.7L717.6 579L724.1 575.7V477.6L590.8 545L681.3 597.3L699.9 587.9L659.9 543.1Z" fill="#4B6FB5"/>
<path d="M659.9 543.1L699.9 587.9L717.6 579L677.6 536.7L659.9 543.1Z" fill="#4B6FB5"/>
<path d="M700.4 392.7L657.1 367.7L458.1 468.4L496.9 490.9L509.5 498.1L708.5 397.4L700.4 392.7Z" fill="#4B6FB5"/>
<path d="M714.2 422.7L461.8 277V447L714.2 592.8V422.7Z" fill="#D9E4F5"/>
<path d="M589.5 337.4C589.1 336.9 588.6 336.5 588 336.2C585.9 335 584.2 335.9 584.2 338.3C584.2 340.7 585.9 343.6 588 344.8C588.2 344.9 588.4 345 588.6 345.1C587.2 343.7 586.3 341.6 586.3 339.8C586.3 337.6 587.7 336.7 589.5 337.4Z" fill="#3A2C5F"/>
<path d="M591.8 342.7C591.8 340.9 590.8 338.8 589.5 337.4C587.7 336.7 586.3 337.6 586.3 339.8C586.3 341.6 587.3 343.7 588.6 345.1C590.4 345.8 591.8 344.9 591.8 342.7Z" fill="#53527C"/>
<path d="M455.4 473.6C453.8 472.7 451.8 472.7 450.2 473.6L299.1 560.9L285.5 559.1V571C285.5 572.1 286.1 573.2 287.5 574L548.7 724.8C550.1 725.6 552 726 553.9 726V530.5L455.4 473.6Z" fill="#4B6FB5"/>
<path d="M719.9 617.8L700.8 615.2L554 530.5V725.9C556.3 725.9 558.8 725.3 560.7 724.2L717.4 633.7C719.4 632.6 720.4 630.3 719.9 628.1L720 628L719.9 617.8Z" fill="#4B6FB5"/>
<path d="M529.3 504.3L517.7 497.6L389 497L384.6 499.6L334.1 528.7L573.5 529.8L529.3 504.3Z" fill="#B5D0EE"/>
<path d="M455.4 461.6C453.8 460.7 451.8 460.7 450.2 461.6L389 497L517.6 497.6L455.4 461.6Z" fill="#9FC4E9"/>
<path d="M548.7 712.8C551.7 714.6 557.1 714.3 560.6 712.3L603.9 687.3L503.7 686.8L548.7 712.8Z" fill="#B5D0EE"/>
<path d="M464.3 664.1L503.7 686.8L604 687.3L642.7 664.9L464.3 664.1Z" fill="#B5D0EE"/>
<path d="M696 634.1L717.3 621.8C719.8 620.4 720.6 617.2 719.2 614.7C718.7 613.9 718.1 613.2 717.3 612.8L717.1 612.7L372.6 611.1L395.4 624.3L464.3 664.1L642.7 664.9L696 634.1Z" fill="#B5D0EE"/>
<path d="M669.9 585.5L626.3 560.3L285.5 558.7C285.4 559.9 286 561.1 287.5 562L307.7 573.7L372.6 611.2L717.1 612.8L669.9 585.5Z" fill="#B5D0EE"/>
<path d="M594 541.7L573.5 529.8L334.1 528.7L326.8 532.9L288.4 555.1C286.6 556.1 285.6 557.4 285.5 558.7L626.3 560.3L594 541.7Z" fill="#B5D0EE"/>
<path d="M473 651.8C474.4 652.6 476.8 652.5 478.4 651.6L520.7 627.2C520.9 627.1 521.1 627 521.3 626.8C521.2 626.8 521.2 626.7 521.1 626.7L441.2 580.6C439.8 579.8 437.4 579.9 435.8 580.8L393.5 605.2C393.3 605.3 393.1 605.4 392.9 605.6C393 605.6 393 605.7 393.1 605.7L473 651.8Z" fill="#D9E4F5"/>
<path d="M448.7 647.9L400 619.7C395.3 617 388.6 616 383.4 617.3L452.8 657.4C455.1 654.4 453.4 650.6 448.7 647.9Z" fill="#D9E4F5"/>
<path d="M559.1 358.5L490.4 318.8C488.2 317.5 486.5 314.2 486.5 311.3C486.5 308.4 488.3 307.1 490.4 308.3L559.1 348C561.3 349.3 563 352.6 563 355.5C563.1 358.4 561.3 359.7 559.1 358.5Z" fill="#BBC9E9"/>
<path d="M679.1 445.1C678.8 445.1 678.4 445 678.2 444.8L477.5 329C476.6 328.5 476.3 327.3 476.8 326.4C477.3 325.5 478.5 325.2 479.4 325.7L680.1 441.6C681 442.1 681.3 443.3 680.8 444.2C680.4 444.7 679.8 445.1 679.1 445.1Z" fill="#BBC9E9"/>
<path d="M679.1 456.2C678.8 456.2 678.4 456.1 678.2 455.9L477.5 340.1C476.6 339.6 476.3 338.4 476.8 337.5C477.3 336.6 478.5 336.3 479.4 336.8L680.1 452.7C681 453.2 681.3 454.4 680.8 455.3C680.4 455.8 679.8 456.2 679.1 456.2Z" fill="#BBC9E9"/>
<path d="M622.9 434.8C622.6 434.8 622.2 434.7 622 434.5L477.5 351.1C476.6 350.6 476.3 349.4 476.8 348.5C477.3 347.6 478.5 347.3 479.4 347.8L623.9 431.2C624.8 431.7 625.1 432.9 624.6 433.8C624.2 434.5 623.6 434.8 622.9 434.8Z" fill="#BBC9E9"/>
<path d="M535.4 432.4L479.5 400.1C478.4 399.5 477.6 397.8 477.6 396.4V362.7C477.6 361.3 478.5 360.6 479.5 361.2L535.4 393.5C536.5 394.1 537.3 395.8 537.3 397.2V430.9C537.4 432.4 536.5 433 535.4 432.4Z" fill="#BBC9E9"/>
<path d="M531.4 461.6C531.1 461.6 530.7 461.5 530.5 461.3L483.3 434.1C482.4 433.6 482.1 432.4 482.6 431.5C483.1 430.6 484.3 430.3 485.2 430.8L532.4 458C533.3 458.5 533.6 459.7 533.1 460.6C532.7 461.2 532.1 461.6 531.4 461.6Z" fill="#BBC9E9"/>
<path d="M507.8 459.1C507.5 459.1 507.1 459 506.9 458.8L483.3 445.2C482.4 444.7 482.1 443.5 482.6 442.6C483.1 441.7 484.3 441.4 485.2 441.9L508.8 455.5C509.7 456 510 457.2 509.5 458.1C509.1 458.7 508.5 459.1 507.8 459.1Z" fill="#BBC9E9"/>
<path d="M528.2 447L486.7 423.1C484.9 422.1 483.5 419.3 483.5 417C483.5 414.6 484.9 413.6 486.7 414.6L528.2 438.5C530 439.5 531.4 442.3 531.4 444.6C531.4 447 530 448.1 528.2 447Z" fill="#BBC9E9"/>
<path d="M602.3 502.5C602 502.5 601.6 502.4 601.4 502.2L554.1 475C553.2 474.5 552.9 473.3 553.4 472.4C553.9 471.5 555.1 471.2 556 471.7L603.2 498.9C604.1 499.4 604.4 500.6 603.9 501.5C603.6 502.2 603 502.5 602.3 502.5Z" fill="#BBC9E9"/>
<path d="M580.1 500.8C579.8 500.8 579.4 500.7 579.2 500.5L554.2 486.1C553.3 485.6 553 484.4 553.5 483.5C554 482.6 555.2 482.3 556.1 482.8L581.1 497.2C582 497.7 582.3 498.9 581.8 499.8C581.4 500.4 580.8 500.8 580.1 500.8Z" fill="#BBC9E9"/>
<path d="M599.1 487.9L557.6 464C555.8 463 554.4 460.2 554.4 457.9C554.4 455.5 555.8 454.5 557.6 455.5L599.1 479.4C600.9 480.4 602.3 483.2 602.3 485.5C602.3 487.9 600.9 489 599.1 487.9Z" fill="#BBC9E9"/>
<path d="M673.1 543.4C672.8 543.4 672.4 543.3 672.2 543.1L625 515.9C624.1 515.4 623.8 514.2 624.3 513.3C624.8 512.4 626 512.1 626.9 512.6L674.1 539.8C675 540.3 675.3 541.5 674.8 542.4C674.5 543.1 673.8 543.4 673.1 543.4Z" fill="#BBC9E9"/>
<path d="M673.1 554.5C672.8 554.5 672.4 554.4 672.2 554.2L625 527C624.1 526.5 623.8 525.3 624.3 524.4C624.8 523.5 626 523.2 626.9 523.7L674.1 550.9C675 551.4 675.3 552.6 674.8 553.5C674.5 554.2 673.8 554.5 673.1 554.5Z" fill="#BBC9E9"/>
<path d="M669.9 528.8L628.5 504.9C626.7 503.9 625.3 501.1 625.3 498.8C625.3 496.4 626.7 495.4 628.5 496.4L670 520.3C671.8 521.3 673.2 524.1 673.2 526.4C673.1 528.8 671.7 529.9 669.9 528.8Z" fill="#BBC9E9"/>
<path d="M606.3 473.3L550.4 441C549.3 440.4 548.5 438.7 548.5 437.3V403.6C548.5 402.2 549.4 401.5 550.4 402.1L606.3 434.4C607.4 435 608.2 436.7 608.2 438.1V471.8C608.2 473.3 607.4 473.9 606.3 473.3Z" fill="#BBC9E9"/>
<path d="M677.2 514.2L621.3 481.9C620.2 481.3 619.4 479.6 619.4 478.2V444.5C619.4 443.1 620.3 442.4 621.3 443L677.2 475.3C678.3 475.9 679.1 477.6 679.1 479V512.7C679.1 514.2 678.2 514.8 677.2 514.2Z" fill="#BBC9E9"/>
<path d="M489.6 645.1L404.8 596.1L403.2 597L488 646L489.6 645.1Z" fill="#4B6FB5"/>
<path d="M433.8 629.2L448 621L446.4 620.1L432.2 628.3L433.8 629.2Z" fill="#4B6FB5"/>
<path d="M461.8 403.6L461.7 422.8L648 386.3L461.8 403.6Z" fill="#AEC3E6"/>
<path d="M625.6 583.3C627.3 582.3 627.3 580.7 625.6 579.7L617.6 575.1C615.9 574.1 613 574.1 611.3 575.1C609.6 576.1 609.6 577.7 611.3 578.7L619.3 583.3C621 584.3 623.9 584.3 625.6 583.3Z" fill="#4B6FB5"/>
<path d="M575.9 554.6C577.6 553.6 577.6 552 575.9 551L567.9 546.4C566.2 545.4 563.3 545.4 561.6 546.4C559.9 547.4 559.9 549 561.6 550L569.6 554.6C571.3 555.6 574.1 555.6 575.9 554.6Z" fill="#4B6FB5"/>
<path d="M642.2 592.8C643.9 591.8 643.9 590.2 642.2 589.2L634.2 584.6C632.5 583.6 629.6 583.6 627.9 584.6C626.2 585.6 626.2 587.2 627.9 588.2L635.9 592.8C637.6 593.8 640.4 593.8 642.2 592.8Z" fill="#4B6FB5"/>
<path d="M592.4 564.1C594.1 563.1 594.1 561.5 592.4 560.5L584.4 555.9C582.7 554.9 579.8 554.9 578.1 555.9C576.4 556.9 576.4 558.5 578.1 559.5L586.1 564.1C587.9 565.1 590.7 565.1 592.4 564.1Z" fill="#4B6FB5"/>
<path d="M609 573.7C610.7 572.7 610.7 571.1 609 570.1L601 565.5C599.3 564.5 596.4 564.5 594.7 565.5C593 566.5 593 568.1 594.7 569.1L602.7 573.7C604.5 574.7 607.3 574.7 609 573.7Z" fill="#4B6FB5"/>
<path d="M493 506.7C494.7 505.7 494.7 504.1 493 503.1L485 498.5C483.3 497.5 480.4 497.5 478.7 498.5C477 499.5 477 501.1 478.7 502.1L486.7 506.7C488.4 507.7 491.2 507.7 493 506.7Z" fill="#4B6FB5"/>
<path d="M459 490.7L461.2 491.9L470.2 497.1C471.9 498.1 474.8 498.1 476.5 497.1C478.2 496.1 478.2 494.5 476.5 493.5L467.5 488.3L465.3 487.1L451.9 479.3C450.2 478.3 447.3 478.3 445.6 479.3C443.9 480.3 443.9 481.9 445.6 482.9L456.7 489.3L459 490.7Z" fill="#4B6FB5"/>
<path d="M526.1 525.8C527.8 524.8 527.8 523.2 526.1 522.2L518.1 517.6C516.4 516.6 513.5 516.6 511.8 517.6C510.1 518.6 510.1 520.2 511.8 521.2L519.8 525.8C521.6 526.8 524.4 526.8 526.1 525.8Z" fill="#4B6FB5"/>
<path d="M509.5 516.3C511.2 515.3 511.2 513.7 509.5 512.7L501.5 508.1C499.8 507.1 496.9 507.1 495.2 508.1C493.5 509.1 493.5 510.7 495.2 511.7L503.2 516.3C505 517.3 507.8 517.3 509.5 516.3Z" fill="#4B6FB5"/>
<path d="M559.3 545C561 544 561 542.4 559.3 541.4L551.3 536.8C549.6 535.8 546.7 535.8 545 536.8C543.3 537.8 543.3 539.4 545 540.4L553 545C554.7 546 557.5 546 559.3 545Z" fill="#4B6FB5"/>
<path d="M542.7 535.4C544.4 534.4 544.4 532.8 542.7 531.8L534.7 527.2C533 526.2 530.1 526.2 528.4 527.2C526.7 528.2 526.7 529.8 528.4 530.8L536.4 535.4C538.1 536.4 541 536.4 542.7 535.4Z" fill="#4B6FB5"/>
<path d="M675.3 612C677 611 677 609.4 675.3 608.4L667.3 603.8L664.2 602L650.8 594.2C649.1 593.2 646.2 593.2 644.5 594.2C642.8 595.2 642.8 596.8 644.5 597.8L655.6 604.2L657.9 605.5L661 607.3L669 611.9C670.8 613 673.6 613 675.3 612Z" fill="#4B6FB5"/>
<path d="M691.9 621.6C693.6 620.6 693.6 619 691.9 618L683.9 613.4C682.2 612.4 679.3 612.4 677.6 613.4C675.9 614.4 675.9 616 677.6 617L685.6 621.6C687.4 622.6 690.2 622.6 691.9 621.6Z" fill="#4B6FB5"/>
<path d="M635.6 596.6L621.3 588.4L609 595.5L623.3 603.7L635.6 596.6Z" fill="#4B6FB5"/>
<path d="M619 587.1L604.7 578.8L592.4 585.9L606.7 594.2L619 587.1Z" fill="#4B6FB5"/>
<path d="M652.2 606.2L650.1 605L637.9 598L625.6 605.1L637.8 612.1L639.9 613.3L642.2 614.6L656.4 622.9L668.7 615.8L654.5 607.5L652.2 606.2Z" fill="#4B6FB5"/>
<path d="M575.8 576.4L590.1 584.6L602.4 577.5L588.2 569.3L575.8 576.4Z" fill="#4B6FB5"/>
<path d="M658.7 624.2L673 632.5L685.3 625.4L671.1 617.1L658.7 624.2Z" fill="#4B6FB5"/>
<path d="M453.2 491.4L439 483.1L426.6 490.2L440.9 498.5L453.2 491.4Z" fill="#4B6FB5"/>
<path d="M569.3 558.4L555 550.1L542.7 557.2L557 565.5L569.3 558.4Z" fill="#4B6FB5"/>
<path d="M443.2 499.8L457.5 508L469.8 500.9L455.5 492.7L443.2 499.8Z" fill="#4B6FB5"/>
<path d="M559.3 566.8L573.5 575L585.9 567.9L571.6 559.7L559.3 566.8Z" fill="#4B6FB5"/>
<path d="M476.4 518.9L490.7 527.2L503 520.1L488.7 511.8L476.4 518.9Z" fill="#4B6FB5"/>
<path d="M459.8 509.4L474.1 517.6L486.4 510.5L472.1 502.3L459.8 509.4Z" fill="#4B6FB5"/>
<path d="M552.7 548.8L538.4 540.5L526.1 547.6L540.4 555.9L552.7 548.8Z" fill="#4B6FB5"/>
<path d="M536.1 539.2L521.9 531L509.5 538.1L523.8 546.3L536.1 539.2Z" fill="#4B6FB5"/>
<path d="M493 528.5L507.2 536.7L519.5 529.6L505.3 521.4L493 528.5Z" fill="#4B6FB5"/>
<path d="M626.8 623.5L641.1 631.7L653.4 624.6L639.2 616.4L626.8 623.5Z" fill="#4B6FB5"/>
<path d="M620.3 605.5L606 597.2L593.7 604.4L608 612.6L620.3 605.5Z" fill="#4B6FB5"/>
<path d="M603.7 595.9L589.4 587.7L577.1 594.8L591.4 603L603.7 595.9Z" fill="#4B6FB5"/>
<path d="M520.8 548.1L506.5 539.8L494.2 546.9L508.5 555.2L520.8 548.1Z" fill="#4B6FB5"/>
<path d="M477.6 537.4L491.9 545.6L504.2 538.5L489.9 530.2L477.6 537.4Z" fill="#4B6FB5"/>
<path d="M427.9 508.6L442.2 516.9L454.5 509.8L440.2 501.5L427.9 508.6Z" fill="#4B6FB5"/>
<path d="M543.9 575.6L558.2 583.9L570.5 576.8L556.3 568.5L543.9 575.6Z" fill="#4B6FB5"/>
<path d="M560.5 585.2L574.8 593.5L587.1 586.3L572.8 578.1L560.5 585.2Z" fill="#4B6FB5"/>
<path d="M537.4 557.6L523.1 549.4L510.8 556.5L525.1 564.7L537.4 557.6Z" fill="#4B6FB5"/>
<path d="M554 567.2L539.7 559L527.4 566.1L541.6 574.3L554 567.2Z" fill="#4B6FB5"/>
<path d="M643.4 633.1L657.7 641.3L670 634.2L655.7 626L643.4 633.1Z" fill="#4B6FB5"/>
<path d="M461.1 527.8L475.3 536L487.6 528.9L473.4 520.7L461.1 527.8Z" fill="#4B6FB5"/>
<path d="M444.5 518.2L458.8 526.5L471.1 519.3L456.8 511.1L444.5 518.2Z" fill="#4B6FB5"/>
<path d="M636.8 615.1L622.6 606.8L610.3 613.9L624.5 622.2L636.8 615.1Z" fill="#4B6FB5"/>
<path d="M437.9 500.2L423.6 492L411.3 499.1L425.6 507.3L437.9 500.2Z" fill="#4B6FB5"/>
<path d="M505.5 556.9L491.2 548.7L478.9 555.8L493.2 564L505.5 556.9Z" fill="#4B6FB5"/>
<path d="M604.9 614.3L590.7 606.1L578.4 613.2L592.6 621.4L604.9 614.3Z" fill="#4B6FB5"/>
<path d="M621.5 623.9L617.9 621.8L607.3 615.7L594.9 622.8L605.6 628.9L609.2 631L611.5 632.3L625.8 640.6L638.1 633.5L623.8 625.2L621.5 623.9Z" fill="#4B6FB5"/>
<path d="M538.6 576L524.4 567.8L512 574.9L526.3 583.2L538.6 576Z" fill="#4B6FB5"/>
<path d="M545.2 594.1L559.5 602.3L571.8 595.2L557.5 586.9L545.2 594.1Z" fill="#4B6FB5"/>
<path d="M429.2 527.1L443.4 535.3L455.7 528.2L441.5 519.9L429.2 527.1Z" fill="#4B6FB5"/>
<path d="M528.6 584.5L542.9 592.7L555.2 585.6L540.9 577.4L528.6 584.5Z" fill="#4B6FB5"/>
<path d="M462.3 546.2L476.6 554.4L488.9 547.3L474.6 539.1L462.3 546.2Z" fill="#4B6FB5"/>
<path d="M588.4 604.8L574.1 596.5L561.8 603.6L576.1 611.9L588.4 604.8Z" fill="#4B6FB5"/>
<path d="M445.7 536.6L460 544.9L472.3 537.8L458 529.5L445.7 536.6Z" fill="#4B6FB5"/>
<path d="M522.1 566.5L507.8 558.2L495.5 565.3L509.7 573.6L522.1 566.5Z" fill="#4B6FB5"/>
<path d="M628.1 641.9L642.4 650.2L654.7 643L640.4 634.8L628.1 641.9Z" fill="#4B6FB5"/>
<path d="M410.3 516.2L412.6 517.5L426.9 525.7L439.2 518.6L424.9 510.4L422.6 509L420.7 507.9L408.3 500.8L396 507.9L408.4 515.1L410.3 516.2Z" fill="#4B6FB5"/>
<path d="M573 613.6L558.8 605.4L546.5 612.5L560.7 620.7L573 613.6Z" fill="#4B6FB5"/>
<path d="M523.3 584.9L509 576.6L496.7 583.8L511 592L523.3 584.9Z" fill="#4B6FB5"/>
<path d="M529.9 602.9L544.2 611.1L556.5 604L542.2 595.8L529.9 602.9Z" fill="#4B6FB5"/>
<path d="M513.3 593.3L527.6 601.6L539.9 594.5L525.6 586.2L513.3 593.3Z" fill="#4B6FB5"/>
<path d="M506.7 575.3L492.5 567.1L480.1 574.2L494.4 582.4L506.7 575.3Z" fill="#4B6FB5"/>
<path d="M430.4 545.5L444.7 553.7L457 546.6L442.7 538.4L430.4 545.5Z" fill="#4B6FB5"/>
<path d="M490.2 565.7L475.9 557.5L463.6 564.6L477.8 572.9L490.2 565.7Z" fill="#4B6FB5"/>
<path d="M447 555L461.3 563.3L473.6 556.2L459.3 547.9L447 555Z" fill="#4B6FB5"/>
<path d="M423.8 527.5L409.6 519.2L407.3 517.9L402.3 515L393 509.7L380.7 516.8L389.9 522.1L395 525L397.3 526.3L411.5 534.6L413.8 535.9L428.1 544.1L440.4 537L426.1 528.8L423.8 527.5Z" fill="#4B6FB5"/>
<path d="M612.8 650.8L627 659L639.4 651.9L625.1 643.6L612.8 650.8Z" fill="#4B6FB5"/>
<path d="M589.6 623.2L585.2 620.6L575.3 614.9L563 622L572.9 627.7L577.3 630.3L579.6 631.6L593.9 639.9L606.2 632.7L591.9 624.5L589.6 623.2Z" fill="#4B6FB5"/>
<path d="M596.2 641.2L610.5 649.4L622.8 642.3L608.5 634.1L596.2 641.2Z" fill="#4B6FB5"/>
<path d="M398.5 544.7L412.8 553L425.1 545.9L410.8 537.6L398.5 544.7Z" fill="#4B6FB5"/>
<path d="M597.4 659.6L611.7 667.8L624 660.7L609.8 652.5L597.4 659.6Z" fill="#4B6FB5"/>
<path d="M580.9 650L595.1 658.3L607.5 651.2L593.2 642.9L580.9 650Z" fill="#4B6FB5"/>
<path d="M514.6 611.7L528.8 620L541.1 612.9L526.9 604.6L514.6 611.7Z" fill="#4B6FB5"/>
<path d="M431.7 563.9L445.9 572.1L458.3 565L444 556.8L431.7 563.9Z" fill="#4B6FB5"/>
<path d="M415.1 554.3L429.4 562.6L441.7 555.5L427.4 547.2L415.1 554.3Z" fill="#4B6FB5"/>
<path d="M557.7 622.5L555.6 621.2L543.4 614.2L531.1 621.3L543.3 628.3L545.4 629.6L562 639.1L574.3 632L560 623.8L557.7 622.5Z" fill="#4B6FB5"/>
<path d="M564.3 640.5L578.6 648.7L590.9 641.6L576.6 633.4L564.3 640.5Z" fill="#4B6FB5"/>
<path d="M508 593.7L493.7 585.5L491.4 584.2L477.1 575.9L474.8 574.6L467.7 570.5L460.6 566.4L448.2 573.5L455.4 577.6L462.5 581.7L464.8 583L479.1 591.3L481.4 592.6L495.7 600.8L512.3 610.4L524.6 603.3L510.3 595.1L508 593.7Z" fill="#4B6FB5"/>
<path d="M391.9 526.7L390.3 525.8L377.7 518.5L365.4 525.6L378 532.9L379.6 533.8L396.2 543.4L408.5 536.3L394.2 528.1L391.9 526.7Z" fill="#4B6FB5"/>
<path d="M393.5 605.2L435.8 580.8C437.4 579.9 439.8 579.8 441.2 580.6L521.1 626.7C521.2 626.7 521.2 626.8 521.3 626.8C522.3 625.9 522.3 624.8 521.1 624.1L441.1 578C439.7 577.2 437.3 577.3 435.7 578.2L393.4 602.6C391.9 603.5 391.7 604.8 392.8 605.6C393.1 605.4 393.3 605.3 393.5 605.2Z" fill="#5F5F80"/>
<path d="M653.9 356.3L644.7 360.6L654.7 366.4L663.4 361.7L653.9 356.3Z" fill="#E99004"/>
<path d="M689.2 376.6L675.2 368.5L666.7 373.3L680.7 381.3L689.2 376.6Z" fill="#E99004"/>
<path d="M663.4 361.7L654.7 366.4L666.7 373.3L675.2 368.5L663.4 361.7Z" fill="#3C3263"/>
<path d="M724 597.3L733 592.9V582.3L724.1 589L724 597.3Z" fill="#3A2C5F"/>
<path d="M724.1 573.4V589L733 582.3V569L724.1 573.4Z" fill="#E99004"/>
<path d="M461.7 321.1L693.6 580.9L714.2 592.8V576.2L461.7 321.1Z" fill="#AEC3E6"/>
<mask id="mask0_1_452" style="mask-type:luminance" maskUnits="userSpaceOnUse" x="451" y="252" width="274" height="369">
<path d="M717.3 402.5L708.6 397.5L700.5 392.8L657.2 367.8L624.7 349L584.2 325.6L557.1 310L477.9 264.3L458.8 253.3C455 251.1 451.9 253.4 451.9 258.5V463.4C451.9 464.4 452.4 465.3 453.3 465.8L458.1 468.6L497 491L509.5 498.2L572.5 534.6L590.8 545.2L681.3 597.5L719.9 619.8C721.2 620.6 722.9 620.1 723.7 618.8C723.9 618.4 724.1 617.9 724.1 617.4V415.6C724.1 410.5 721 404.7 717.3 402.5Z" fill="white"/>
</mask>
<g mask="url(#mask0_1_452)">
<path d="M516.8 380.2L515.3 380.4L392.6 399.2L402.9 423.8L522.3 405.6L525.5 396.1L516.8 380.2Z" fill="#F8BC2E"/>
<path d="M483.8 385.2L468.8 387.5L459.5 415.2L474.5 412.9L483.8 385.2Z" fill="#242A58"/>
<path d="M515.3 380.4L500.2 382.7L490.9 410.4L506 408.1L515.3 380.4Z" fill="#242A58"/>
<path d="M530.1 382.3L527.5 378.5L516.8 380.2L525.5 396.1L530.1 382.3Z" fill="#E99004"/>
<path d="M531.6 377.9L527.5 378.5L530.1 382.3L531.6 377.9Z" fill="#F8BC2E"/>
<path d="M544.3 402.2L724.4 374.6L714.1 350L546.7 375.6L539.9 395.9L544.3 402.2Z" fill="#F8BC2E"/>
<path d="M528.3 404.6L530 404.4L528.3 404.6Z" fill="#F8BC2E"/>
<path d="M539.9 395.9L537.4 403.3L530 404.4L544.3 402.2L539.9 395.9Z" fill="#E99004"/>
<path d="M546.7 375.6L531.6 377.9L546.7 375.6Z" fill="#53527C"/>
<path d="M522.3 405.6L528.3 404.6L526.1 405L522.3 405.6Z" fill="#53527C"/>
<path d="M525.5 396.1L522.3 405.6L526.1 405L528.3 404.6L530 404.4L525.5 396.1Z" fill="#242A58"/>
<path d="M539.9 395.9L546.7 375.6L531.6 377.9L530.1 382.3L539.9 395.9Z" fill="#53527C"/>
<path d="M525.5 396.1L530 404.4L537.4 403.3L539.9 395.9L530.1 382.3L525.5 396.1Z" fill="#3A2C5F"/>
<path d="M578.1 370.8L563.1 373.1L553.8 400.7L568.8 398.4L578.1 370.8Z" fill="#53527C"/>
<path d="M609.5 366L594.5 368.3L585.2 395.9L600.3 393.6L609.5 366Z" fill="#242A58"/>
<path d="M641 361.2L625.9 363.5L616.6 391.1L631.7 388.8L641 361.2Z" fill="#242A58"/>
<path d="M672.4 356.4L657.3 358.7L648.1 386.3L663.1 384L672.4 356.4Z" fill="#242A58"/>
<path d="M717.3 357.6L710.9 376.7L724.4 374.6L717.3 357.6Z" fill="#53527C"/>
</g>
<mask id="mask1_1_452" style="mask-type:luminance" maskUnits="userSpaceOnUse" x="451" y="252" width="274" height="369">
<path d="M717.3 402.5L708.6 397.5L700.5 392.8L657.2 367.8L624.7 349L584.2 325.6L557.1 310L477.9 264.3L458.8 253.3C455 251.1 451.9 253.4 451.9 258.5V463.4C451.9 464.4 452.4 465.3 453.3 465.8L458.1 468.6L497 491L509.5 498.2L572.5 534.6L590.8 545.2L681.3 597.5L719.9 619.8C721.2 620.6 722.9 620.1 723.7 618.8C723.9 618.4 724.1 617.9 724.1 617.4V415.6C724.1 410.5 721 404.7 717.3 402.5Z" fill="white"/>
</mask>
<g mask="url(#mask1_1_452)">
<path d="M763.2 638.6L411.5 268.1L418.8 251.8L770.5 622.3L763.2 638.6Z" fill="#F8BC2E"/>
<path d="M484.2 320.7L467.7 303.4L439 297.1L455.5 314.5L484.2 320.7Z" fill="#242A58"/>
<path d="M518.6 356.9L502.1 339.6L473.4 333.3L489.9 350.7L518.6 356.9Z" fill="#242A58"/>
<path d="M553 393.1L536.5 375.8L507.8 369.5L524.2 386.9L553 393.1Z" fill="#242A58"/>
<path d="M587.3 429.4L570.9 412L542.2 405.8L558.6 423.1L587.3 429.4Z" fill="#242A58"/>
<path d="M621.7 465.6L605.2 448.2L576.5 442L593 459.3L621.7 465.6Z" fill="#242A58"/>
<path d="M656.1 501.8L639.6 484.4L610.9 478.2L627.4 495.5L656.1 501.8Z" fill="#242A58"/>
<path d="M690.5 538L674 520.6L645.3 514.4L661.8 531.7L690.5 538Z" fill="#242A58"/>
<path d="M724.9 574.2L708.4 556.9L679.7 550.6L696.2 568L724.9 574.2Z" fill="#242A58"/>
<path d="M759.3 610.4L742.8 592.8L714.1 586.8L730.5 604.2L759.3 610.4Z" fill="#53527C"/>
</g>
<path d="M812.4 301.4C812.6 300.5 812.8 299.7 813.1 298.9L809.4 292.6L821.5 285.7C821.7 285.6 821.9 285.5 822.1 285.4L822.3 285.3C830.1 281.2 840.8 282 852.5 288.7C855.7 290.6 858.7 292.7 861.6 295C881.4 311.3 896.2 340.1 896.2 364.4C896.2 377.7 891.8 387.2 884.5 392L884.4 392.1C883.6 392.6 882.8 393.1 882 393.5L872.2 399.1L869 393.7C864.6 392.9 859.9 391.1 855 388.3C846.4 383.4 838.4 375.9 831.7 367.1C826.7 360.5 822.4 353.4 819.1 345.8C814.2 334.8 811.3 323.3 811.3 312.6C811.3 310.7 811.4 308.7 811.6 306.8C811.7 304.9 812 303.1 812.4 301.4Z" fill="#B34B4B"/>
<path d="M860.9 311.2C857.8 307.6 854.3 304.2 850.6 301.2C847.8 298.8 844.7 296.7 841.5 294.9C824.1 284.9 809.2 287.9 802.1 300.7C801.4 302.1 800.7 303.5 800.2 304.9C799.7 306.2 799.3 307.6 799 308.9C798.6 310.7 798.3 312.4 798.1 314.2C797.9 316.1 797.8 318.1 797.8 320C797.8 330.7 800.7 342.2 805.6 353.2C808.7 360.2 812.6 366.8 817.1 372.9C819.4 371.5 821.6 369.9 823.8 368.3C842.7 354.1 855.4 333.7 860.9 311.2Z" fill="#ED7071"/>
<path d="M860.9 311.2C855.4 333.7 842.6 354 823.8 368.4C821.6 370 819.4 371.6 817.1 373C817.5 373.5 817.9 374.1 818.3 374.6C825 383.4 833 390.9 841.6 395.8C865.7 409.7 885.3 398.4 885.3 370.6C885.3 350.7 875.4 327.8 860.9 311.2Z" fill="#ED7071"/>
<path d="M812.8 338.3L870.4 371.6V354.5L812.8 321.2V338.3Z" fill="#FDEADE"/>
<path d="M605.2 765.2C605.2 765.3 605.1 765.3 605.2 765.2L564.6 788.7C564.5 788.7 564.4 788.7 564.4 788.7H564.3V795.8C564.4 795.8 564.5 795.8 564.5 795.8L605.1 772.4C605.1 772.4 605.1 772.4 605.2 772.3V765.2Z" fill="#EA4D5D"/>
<path d="M564.3 788.7L538.6 773.8L523.9 765.3C523.9 765.3 523.9 765.3 523.9 765.2V772.3C523.9 772.3 523.9 772.3 523.9 772.4L564.4 795.8L564.3 788.7Z" fill="#EA4D5D"/>
<path d="M605.2 765.2L597.1 760.5L575.9 748.3L564.6 741.8C564.5 741.8 564.4 741.8 564.4 741.8L553.5 748.1L561.4 754.9L547.7 768.6L552.3 773.8L581.3 779.2L605.2 765.2C605.2 765.3 605.1 765.3 605.2 765.2Z" fill="#ED7071"/>
<path d="M547.6 768.5L561.3 754.8L553.4 748L523.8 765.1C523.8 765.1 523.8 765.1 523.7 765.2C523.7 765.2 523.7 765.2 523.7 765.3L538.4 773.8L564.1 788.7H564.2C564.3 788.7 564.4 788.7 564.4 788.7L577.7 781L581 779.1L552 773.7L547.6 768.5Z" fill="#ED7071"/>
<path d="M566.7 719.4L565.1 700.4C564.8 700.4 564.6 700.3 564.3 700.3C561.2 700.3 558.5 702.4 557.7 705.5L555.6 714.3L554.4 718.5C557.7 719.2 561.1 719.6 564.5 719.6C565.2 719.5 566 719.5 566.7 719.4Z" fill="#B34B4B"/>
<path d="M574.5 718.4L573.3 714.2L570.7 705.2C570 702.6 567.7 700.7 565 700.3L566.6 719.3C569.3 719.3 572 719 574.5 718.4Z" fill="#B34B4B"/>
<path d="M570 758.2C576 757.5 581.1 755.8 584.5 753.4L583.4 749.5L582.2 745.3C578.3 746.7 573.9 747.7 569.2 748.1L570 758.2Z" fill="#B34B4B"/>
<path d="M570 758.2L569.1 748.1C567.6 748.2 566 748.3 564.4 748.3C558 748.3 551.9 747.3 546.7 745.3L545.5 749.5L544.4 753.4C548.8 756.5 556.1 758.6 564.4 758.6C566.3 758.6 568.2 758.5 570 758.2Z" fill="#B34B4B"/>
<path d="M568.4 739.5C572.7 739.2 576.6 738.3 579.8 737L576.9 726.8C573.8 727.5 570.6 728 567.5 728.1L568.4 739.5Z" fill="#B34B4B"/>
<path d="M568.4 739.5L567.4 728.1C566.4 728.2 565.4 728.2 564.4 728.2C560.2 728.2 556 727.7 552 726.8L549.1 737C553.3 738.7 558.6 739.7 564.5 739.7C565.8 739.6 567.1 739.6 568.4 739.5Z" fill="#B34B4B"/>
<path d="M564.5 767.2C556.7 767.2 549.2 765.6 543.4 762.8C542.9 762.6 542.4 762.3 542 762.1L540.9 766C540.9 771 551.5 775.1 564.5 775.1C566.8 775.1 569.2 775 571.5 774.7L570.8 767C568.7 767.1 566.6 767.2 564.5 767.2Z" fill="#ED7071"/>
<path d="M585.5 762.8C581.3 764.9 576.2 766.2 570.7 766.9L571.4 774.6C581 773.5 588 770 588 765.9L586.9 762C586.5 762.3 586 762.6 585.5 762.8Z" fill="#ED7071"/>
<path d="M569.2 748.1C573.9 747.7 578.3 746.8 582.2 745.3L580.1 738L579.8 736.9C576.6 738.2 572.7 739.1 568.4 739.4L569.2 748.1Z" fill="#E8BCBC"/>
<path d="M569.2 748.1L568.5 739.5C567.2 739.6 565.9 739.7 564.5 739.7C558.7 739.7 553.3 738.7 549.1 737L548.8 738.1L546.7 745.4C551.9 747.3 558 748.4 564.4 748.4C566.1 748.3 567.6 748.2 569.2 748.1Z" fill="#FDEADE"/>
<path d="M564.5 767.2C566.6 767.2 568.7 767.1 570.8 766.8L570.1 758.2C568.3 758.4 566.4 758.5 564.5 758.5C556.2 758.5 548.9 756.5 544.5 753.3L543.1 758.4L542.1 762C542.6 762.3 543 762.5 543.5 762.7C549.2 765.7 556.7 767.2 564.5 767.2Z" fill="#FDEADE"/>
<path d="M570.8 766.9C576.3 766.3 581.4 764.9 585.6 762.8C586.1 762.6 586.6 762.3 587 762L584.5 753.3C581.1 755.7 576 757.5 570 758.1L570.8 766.9Z" fill="#E8BCBC"/>
<path d="M567.5 728.1L566.8 719.4C566.1 719.4 565.3 719.5 564.5 719.5C561.1 719.5 557.7 719.2 554.4 718.4L552.3 725.7L552 726.8C556.1 727.7 560.3 728.2 564.4 728.2C565.5 728.2 566.5 728.1 567.5 728.1Z" fill="#FDEADE"/>
<path d="M567.5 728.1C570.7 727.9 573.8 727.5 576.9 726.8L576.6 725.7L574.5 718.4C571.9 719 569.3 719.3 566.7 719.4L567.5 728.1Z" fill="#E8BCBC"/>
<path d="M355.3 620.4L314.7 643.9C314.6 643.9 314.5 643.9 314.5 643.9H314.4V651C314.5 651 314.6 651 314.6 651L355.2 627.6C355.2 627.6 355.2 627.6 355.3 627.5V620.4Z" fill="#DF3451"/>
<path d="M314.5 643.8L288.7 629L274 620.5C274 620.5 274 620.5 274 620.4V627.5V627.6L314.5 651V643.8Z" fill="#EA4D5D"/>
<path d="M355.3 620.4L347.2 615.7L326 603.5L314.7 597C314.6 597 314.5 597 314.5 597L303.6 603.3L311.5 610.1L297.8 623.8L302.4 629L331.4 634.4L355.3 620.4C355.3 620.5 355.3 620.5 355.3 620.4Z" fill="#ED7071"/>
<path d="M297.8 623.7L311.5 610L303.6 603.2L274 620.3C274 620.3 274 620.3 273.9 620.4C273.9 620.4 273.9 620.4 273.9 620.5L288.6 629L314.3 643.9H314.4C314.5 643.9 314.6 643.9 314.6 643.9L327.9 636.2L331.2 634.3L302.2 628.9L297.8 623.7Z" fill="#ED7071"/>
<path d="M316.9 574.6L315.3 555.6C315 555.6 314.8 555.5 314.5 555.5C311.4 555.5 308.7 557.6 307.9 560.7L305.8 569.5L304.6 573.7C307.9 574.4 311.3 574.8 314.7 574.8C315.4 574.7 316.2 574.6 316.9 574.6Z" fill="#B34B4B"/>
<path d="M324.7 573.6L323.5 569.4L320.9 560.4C320.2 557.8 317.9 555.9 315.2 555.5L316.8 574.5C319.5 574.5 322.1 574.1 324.7 573.6Z" fill="#B34B4B"/>
<path d="M320.2 613.4C326.2 612.7 331.3 611 334.7 608.6L333.6 604.7L332.4 600.5C328.5 601.9 324.1 602.9 319.4 603.3L320.2 613.4Z" fill="#B34B4B"/>
<path d="M320.2 613.4L319.3 603.3C317.8 603.4 316.2 603.5 314.6 603.5C308.2 603.5 302.1 602.5 296.9 600.5L295.7 604.7L294.6 608.6C299 611.7 306.3 613.8 314.6 613.8C316.5 613.7 318.4 613.6 320.2 613.4Z" fill="#B34B4B"/>
<path d="M318.6 594.7C322.9 594.4 326.8 593.5 330 592.2L327.1 582C324 582.7 320.8 583.2 317.7 583.3L318.6 594.7Z" fill="#B34B4B"/>
<path d="M318.6 594.7L317.6 583.3C316.6 583.4 315.6 583.4 314.6 583.4C310.4 583.4 306.2 582.9 302.2 582L299.3 592.2C303.5 593.9 308.8 594.9 314.7 594.9C316 594.8 317.3 594.8 318.6 594.7Z" fill="#B34B4B"/>
<path d="M314.6 622.4C306.8 622.4 299.3 620.8 293.5 618C293 617.8 292.5 617.5 292.1 617.3L291 621.2C291 626.2 301.6 630.3 314.6 630.3C316.9 630.3 319.3 630.2 321.6 629.9L320.9 622.2C318.8 622.3 316.7 622.4 314.6 622.4Z" fill="#B34B4B"/>
<path d="M335.7 618C331.5 620.1 326.4 621.4 320.9 622.1L321.6 629.8C331.2 628.7 338.2 625.2 338.2 621.1L337.1 617.2C336.7 617.5 336.2 617.8 335.7 618Z" fill="#B34B4B"/>
<path d="M319.3 603.3C324 602.9 328.4 602 332.3 600.5L330.2 593.2L329.9 592.1C326.7 593.4 322.8 594.3 318.5 594.6L319.3 603.3Z" fill="#E8BCBC"/>
<path d="M319.3 603.3L318.6 594.7C317.3 594.8 316 594.9 314.6 594.9C308.8 594.9 303.4 593.9 299.2 592.2L298.9 593.3L296.8 600.6C302 602.5 308.1 603.6 314.5 603.6C316.2 603.5 317.8 603.4 319.3 603.3Z" fill="#FDEADE"/>
<path d="M314.6 622.4C316.7 622.4 318.8 622.3 320.9 622L320.2 613.4C318.4 613.6 316.5 613.7 314.6 613.7C306.3 613.7 299 611.7 294.6 608.5L293.2 613.6L292.2 617.2C292.7 617.5 293.1 617.7 293.6 617.9C299.3 620.8 306.8 622.4 314.6 622.4Z" fill="#FDEADE"/>
<path d="M321 622.1C326.5 621.5 331.6 620.1 335.8 618C336.3 617.8 336.8 617.5 337.2 617.2L334.7 608.5C331.3 610.9 326.2 612.7 320.2 613.3L321 622.1Z" fill="#E8BCBC"/>
<path d="M317.6 583.2L316.9 574.5C316.2 574.5 315.4 574.6 314.6 574.6C311.2 574.6 307.8 574.3 304.5 573.5L302.4 580.8L302.1 581.9C306.2 582.8 310.4 583.3 314.5 583.3C315.6 583.3 316.6 583.3 317.6 583.2Z" fill="#FDEADE"/>
<path d="M317.6 583.2C320.8 583 323.9 582.6 327 581.9L326.7 580.8L324.6 573.5C322 574.1 319.4 574.4 316.8 574.5L317.6 583.2Z" fill="#E8BCBC"/>
<path d="M793.1 657.1L752.5 680.6C752.4 680.6 752.3 680.6 752.3 680.6H752.2V687.7C752.3 687.7 752.4 687.7 752.4 687.7L793 664.3C793 664.3 793 664.3 793.1 664.2V657.1Z" fill="#DF3451"/>
<path d="M752.2 680.5L726.5 665.6L711.7 657.1C711.7 657.1 711.7 657.1 711.7 657V664.1V664.2L752.2 687.6V680.5Z" fill="#EA4D5D"/>
<path d="M793.1 657.1L785 652.4L763.8 640.2L752.5 633.7C752.4 633.7 752.3 633.7 752.3 633.7L741.4 640L749.3 646.8L735.6 660.5L740.2 665.7L769.2 671.1L793.1 657.1Z" fill="#ED7071"/>
<path d="M735.5 660.4L749.2 646.7L741.3 639.9L711.7 657C711.7 657 711.7 657 711.6 657.1C711.6 657.1 711.6 657.1 711.6 657.2L726.3 665.7L752 680.6H752.1C752.2 680.6 752.3 680.6 752.3 680.6L765.6 672.9L768.9 671L739.9 665.6L735.5 660.4Z" fill="#ED7071"/>
<path d="M754.6 611.3L753 592.3C752.7 592.3 752.5 592.2 752.2 592.2C749.1 592.2 746.4 594.3 745.6 597.4L743.5 606.2L742.3 610.4C745.6 611.1 749 611.5 752.4 611.5C753.1 611.3 753.9 611.3 754.6 611.3Z" fill="#B34B4B"/>
<path d="M762.4 610.3L761.2 606.1L758.6 597.1C757.9 594.5 755.6 592.6 752.9 592.2L754.5 611.2C757.3 611.2 759.9 610.8 762.4 610.3Z" fill="#B34B4B"/>
<path d="M758 650.1C764 649.4 769.1 647.7 772.5 645.3L771.4 641.4L770.2 637.2C766.3 638.6 761.9 639.6 757.2 640L758 650.1Z" fill="#B34B4B"/>
<path d="M758 650.1L757.1 640C755.6 640.1 754 640.2 752.4 640.2C746 640.2 739.9 639.2 734.7 637.2L733.5 641.4L732.4 645.3C736.8 648.4 744.1 650.5 752.4 650.5C754.2 650.4 756.1 650.3 758 650.1Z" fill="#B34B4B"/>
<path d="M756.4 631.3C760.7 631 764.6 630.1 767.8 628.8L764.9 618.6C761.8 619.3 758.6 619.8 755.5 619.9L756.4 631.3Z" fill="#B34B4B"/>
<path d="M756.4 631.3L755.4 619.9C754.4 620 753.4 620 752.4 620C748.2 620 744 619.5 740 618.6L737.1 628.8C741.3 630.5 746.6 631.5 752.5 631.5C753.7 631.5 755.1 631.4 756.4 631.3Z" fill="#B34B4B"/>
<path d="M752.4 659.1C744.6 659.1 737.1 657.5 731.3 654.7C730.8 654.5 730.3 654.2 729.9 654L728.8 657.9C728.8 662.9 739.4 667 752.4 667C754.7 667 757.1 666.9 759.4 666.6L758.7 658.9C756.6 659 754.5 659.1 752.4 659.1Z" fill="#B34B4B"/>
<path d="M773.4 654.7C769.2 656.8 764.1 658.1 758.6 658.7L759.3 666.4C768.9 665.3 775.9 661.8 775.9 657.7L774.8 653.8C774.4 654.2 773.9 654.5 773.4 654.7Z" fill="#B34B4B"/>
<path d="M757.1 640C761.8 639.6 766.2 638.7 770.1 637.2L768 629.9L767.7 628.8C764.5 630.1 760.6 631 756.3 631.3L757.1 640Z" fill="#E8BCBC"/>
<path d="M757.1 640L756.4 631.4C755.1 631.5 753.8 631.6 752.4 631.6C746.6 631.6 741.2 630.6 737 628.9L736.7 630L734.6 637.3C739.8 639.2 745.9 640.3 752.3 640.3C754 640.2 755.5 640.1 757.1 640Z" fill="#FDEADE"/>
<path d="M752.4 659.1C754.5 659.1 756.6 659 758.7 658.7L758 650.1C756.2 650.3 754.3 650.4 752.4 650.4C744.1 650.4 736.8 648.4 732.4 645.2L731 650.3L730 653.9C730.5 654.2 730.9 654.4 731.4 654.6C737.1 657.5 744.6 659.1 752.4 659.1Z" fill="#FDEADE"/>
<path d="M758.7 658.7C764.2 658.1 769.3 656.7 773.5 654.7C774 654.5 774.5 654.2 774.9 653.9L772.4 645.2C769 647.6 763.9 649.4 757.9 650L758.7 658.7Z" fill="#E8BCBC"/>
<path d="M755.4 619.9L754.7 611.2C754 611.2 753.2 611.3 752.4 611.3C749 611.3 745.6 610.9 742.3 610.2L740.2 617.5L739.9 618.6C744 619.5 748.2 620 752.3 620C753.4 620 754.4 620 755.4 619.9Z" fill="#FDEADE"/>
<path d="M755.4 619.9C758.6 619.7 761.7 619.3 764.8 618.6L764.5 617.5L762.4 610.2C759.8 610.8 757.2 611.1 754.6 611.2L755.4 619.9Z" fill="#E8BCBC"/>
<path d="M790.6 401.8L793 411L797.9 408.5L790.6 401.8Z" fill="#BBDBF5"/>
<path d="M778.3 370.3L777.9 370.1C773.5 368.4 769.7 368.7 766.6 370.4L753.8 377.5L757.7 390.3L765.8 377.3L778.3 370.3Z" fill="#BBDBF5"/>
<path d="M787.9 533L783.6 537.6L794.7 552.5L795 561.1L800.2 558L800.9 557.6L798.8 563.1L795.2 563L795.3 563.1L789.8 577.6C791.6 578.6 793.5 579.4 795.5 579.9L794.8 585.9L807.2 579C807.3 578.9 807.5 578.9 807.6 578.8H807.7C812.4 576 815.2 570.2 815.2 561.9C815.2 549.9 809.2 536.1 800.5 526.1L787.9 533Z" fill="#BBDBF5"/>
<path d="M782.9 536.5L783.6 537.6L783.9 537.3L783 536L782.9 536.5Z" fill="#BBDBF5"/>
<path d="M775.2 539.4L778.8 530.2H778.9L768.5 515.5C764.7 518.6 762.4 524 762.4 531.4C762.4 532.9 762.5 534.5 762.7 536L759.6 539.3L760.5 546.7L762.6 546.3L775.2 539.4Z" fill="#83B0DF"/>
<path d="M775.1 572.2C777.6 574.5 779.5 576.3 779.7 576.4C780.2 576.9 786.8 576.4 786.8 576.4L786.1 575.2C787 575.8 787.8 576.4 788.7 576.9C789 577.1 789.4 577.3 789.7 577.5L795.2 563L795.1 562.9L789.3 562.7L789.2 562.6L776.9 569.7L775.1 572.2Z" fill="#83B0DF"/>
<path d="M779.6 552.8L775.2 539.4L762.7 546.3L760.6 546.7L762.3 560.4L764.2 562.2L767.1 559.8L779.6 552.8Z" fill="#83B0DF"/>
<path d="M767.1 559.8L764.2 562.2C766.8 564.6 771.5 568.9 775.1 572.2L776.8 569.5L789.1 562.4L779.5 552.8L767.1 559.8Z" fill="#9FC4E9"/>
<path d="M800.4 526V443.3L791.3 442.1L777.1 444.4V512.6C773.8 512.6 770.8 513.6 768.5 515.5L778.9 530.2L782.9 535.9L783.8 537.2L787.8 532.9L800.4 526Z" fill="#9FC4E9"/>
<path d="M790.2 412.3L789.2 412.2L778.3 400.2L765.8 407.1L764.3 407.6C766.4 412 769 416.1 771.9 420L776.6 419.1L790.2 412.3Z" fill="#9FC4E9"/>
<path d="M800.4 443.3L809.6 438.3C810.2 438 810.7 437.7 811.2 437.4L811.4 437.3C815.8 434.4 818.5 428.9 818.5 421.1C818.5 409.2 810.4 390.9 799.9 382.8L787.4 389.7L790.4 401.7L797.6 408.4L793 411L793.4 412.5L790.3 412.3L776.8 419.2L772.1 420.1C773.7 422.2 775.4 424.2 777.3 426.1V444.4L791.5 442.1L800.4 443.3Z" fill="#BBDBF5"/>
<path d="M778.3 400.3V370.3L765.8 377.2L757.7 390.2L758.9 394L759.5 393.2C760.3 398 762 402.9 764.3 407.7L765.8 407.2L778.3 400.3Z" fill="#83B0DF"/>
<path d="M787.9 533V446.4C798.6 447.8 806.1 441 806.1 428C806.1 416.1 798 397.8 787.5 389.7V419.7L776.6 419.1L765.7 407.1V377.1L765.3 376.9C753.8 372.4 746.3 381.6 746.3 393.5C746.3 406.5 753.8 422 764.5 432.9V519.5C755.8 519.4 749.8 526.3 749.8 538.3C749.8 555.1 761.6 575.5 776.1 583.9C790.6 592.3 802.4 585.5 802.4 568.7C802.6 556.7 796.6 542.9 787.9 533ZM786.3 569.9L776.9 569.5L767.1 559.7L762.7 546.3L766.3 537.1L775.7 537.5L785.5 547.3L789.9 560.7L786.3 569.9Z" fill="#B4CAE3"/>
<path d="M390.3 778.9C390.8 779 391.4 779 392 779.1C393.8 779.4 395.6 779.7 397.5 780C398.1 780.1 398.7 780.2 399.2 780.2C401.8 778.4 403.5 776.6 403.7 775.7L398 772.1C398.7 770.1 400 768.3 400.9 766.4L409.7 765.1C410.2 763.4 410.3 761.6 410.2 759.9L403.3 758.7L402 758.5L401.4 758.4L399.3 752.7L405.8 749.2C405 747.5 403.3 746 401.8 744.5L392.9 745.8L389.8 743.8L386.4 741.7C386.2 741.2 386.4 740.8 386.7 740.3C387.3 739.3 387.9 738.3 388.4 737.2C388.5 736.9 388.6 736.6 388.6 736.3C386.2 735.2 383.7 734.3 381.2 733.7L374.6 737.2L365 735.6C364.3 733.9 363.7 732.3 363 730.6C360 730.4 357 730.3 354 730.5L351.3 735.4L341.5 736.8L335.4 733C332.5 733.7 330 734.6 327.4 735.5C328.1 737.3 328.7 739 329.3 740.7L321.8 744.7L313.2 743.2C310.1 745.5 308.7 746.9 308.7 747.9L314.4 751.4C313.5 753.3 312.4 755.2 311.3 757.1L302.6 758.4C302.3 760.2 301.9 761.9 302.3 763.6L309.5 764.9L310.7 765.1C311.9 766.9 312.2 768.8 313.1 770.8L306.3 774.5L310.5 779.1L319.6 777.7L323.5 780.1L326.2 781.8C326 782.3 325.8 782.7 325.6 783.1C325 784.4 324.2 785.6 323.5 787L331 789.7L337.9 786L347.5 787.7C348.2 789.4 348.9 791.1 349.6 792.9C350.1 792.9 356.5 793.1 358.7 793.1C359.2 792 359.8 790.8 360.3 789.7C360.6 789.1 361 788.5 361.3 788L371 786.7L377.1 790.4C380.1 789.9 382.6 788.9 385.2 788L383.2 782.9L390.3 778.9ZM356.4 769.8C349.2 770 343.2 766.9 342.6 762.8C342.6 762.6 342.5 762.4 342.5 762.2C342.4 757.8 348.4 754.2 355.9 754C363.1 753.8 369.1 756.9 369.7 761C369.7 761.2 369.8 761.4 369.8 761.6C370 765.9 364 769.6 356.4 769.8Z" fill="#D6EBFB"/>
<path d="M333.1 690L326 689.5C324.1 691.6 323.4 692.8 323.6 693.5L329 695.8C328.7 697.4 328.4 699 328 700.5L321.5 702.2C321.7 703.6 321.9 705 322.6 706.3L328.6 706.7L329.6 706.8C331 708.1 331.8 709.6 332.9 711L328.5 714.5L332.9 717.7L339.7 715.9L343.4 717.5L346 718.6C346 719 345.9 719.3 345.9 719.7C345.7 720.7 345.4 721.8 345.2 722.9L351.8 724.4L356.3 720.9L364.3 721.4C365.3 722.7 366.2 723.9 367.2 725.2C367.6 725.2 372.7 724.8 374.4 724.5C374.5 723.6 374.7 722.6 374.8 721.7C374.9 721.2 375 720.7 375.1 720.3L382.4 718.4L388.1 720.7C390.4 720.1 392 719.1 393.9 718.1L391 714.3L395.7 710.6C396.1 710.6 396.6 710.6 397.1 710.6C398.6 710.7 400.1 710.8 401.6 710.8C402.1 710.8 402.6 710.8 403 710.8C404.5 709.1 405.5 707.6 405.4 706.9L400 704.6C400 703 400.6 701.5 400.9 699.9L407.5 698.1C407.4 696.7 407.1 695.3 406.5 694L400.8 693.6L399.7 693.5H399.2C398.1 692 397.1 690.6 396.1 689.2L400.3 685.9C399.2 684.6 397.5 683.6 395.9 682.6L389.2 684.4L386.2 683.1L383 681.7C382.7 681.4 382.8 681 382.9 680.6C383.1 679.8 383.3 678.9 383.5 678.1C383.5 677.9 383.5 677.6 383.5 677.4C381.4 676.8 379.2 676.3 377 676L372.7 679.3L364.7 678.8L361.8 675C359.4 675.1 357 675.3 354.7 675.7L353.8 679.8L346.4 681.7L340.6 679.3C338.5 680.1 336.7 681 334.9 681.9L337.7 685.8L333.1 690ZM362.3 694.2C367.9 693.5 373.4 695.4 375 698.5C375.1 698.7 375.1 698.8 375.2 699C376.4 702.4 372.6 705.8 366.7 706.6C361.1 707.3 355.6 705.4 354 702.3C353.9 702.2 353.9 702 353.8 701.8C352.6 698.3 356.4 695 362.3 694.2Z" fill="#D6EBFB"/>
<path d="M291.7 745.1C293.4 742.4 296 740.1 298.1 737.5L310.9 736.9C312.2 734.6 313.2 732.2 313.7 729.6L302.1 726.2C301.9 723.3 301.7 720.6 301.5 717.9L309.6 714.8L312 713.9C311.6 711.3 309.8 709.1 308.3 706.8L295.4 707.4L291.8 704.2L288 700.8C287.9 700.1 288.4 699.5 289 698.9C290.3 697.6 291.5 696.2 292.7 694.8C293 694.4 293.2 694 293.4 693.6C290.5 691.7 287.4 690.2 284.1 688.9L273.4 693L260.6 689.4C260.4 687 260.1 684.5 259.8 682C255.7 681.2 251.5 680.8 247.2 680.6L241.4 687.2L227.1 687.8L220.1 681.6C215.8 682.1 211.9 683.1 207.9 684C208.1 686.6 208.2 689.1 208.4 691.6L196.3 696.2L184.9 692.9C179.6 695.7 177.2 697.5 176.6 698.8L183.1 704.5C181 707.1 178.7 709.7 176.4 712.1L163.7 712.7C162.6 715.1 161.4 717.5 161.1 720L172.1 723.2C173 725.8 172.7 728.7 173.1 731.5L162.1 735.8C162.7 736.9 163.3 737.9 163.9 738.9L166.1 742.8L179.3 742.1L186.9 748.9C186.5 749.5 186 750.1 185.5 750.7C184.1 752.4 182.4 754.1 181 755.9L190.3 760.7L201.4 756.4L214.1 760.1C214.4 762.6 214.6 765 214.9 767.6C215.6 767.7 224.5 768.8 227.6 769.1C228.8 767.6 230 766 231.3 764.5C232 763.7 232.7 762.9 233.4 762.2L247.5 761.7L254.5 767.7C258.9 767.4 262.8 766.3 266.9 765.4C266.7 763 266.4 760.5 266.2 757.9L278 753.4C278.7 753.5 279.5 753.7 280.3 753.9C282.7 754.6 285.2 755.2 287.6 755.9C288.4 756.1 289.2 756.3 290 756.5C294.3 754.3 297.5 752.1 298.2 750.8L291.7 745.1ZM236.7 741.8C220.6 741.7 207.9 734.1 208.3 724.8C208.7 715.5 222.1 707.9 238.2 708C254.3 708.1 267 715.7 266.6 725C266.2 734.3 252.8 741.9 236.7 741.8Z" fill="#D6EBFB"/>
<path d="M277.3 435.6L314.7 454.4L314.2 448L274.7 429.2L269.3 407L273 409L309.3 426.1L307.5 418.9L268.4 401L261.5 376.7L301.9 396.5L300.1 389.5L260.3 371.6L254.1 345.5L293.5 367.2L293.6 360L254.1 339.9L250.2 329.6L248.4 319.1L288.6 338.7L285.6 330.7L245.6 311.5L241 287.9H234.3L275.1 455.8L278.4 460.3L283.8 457.2L277.7 442.7L277.3 435.6Z" fill="#A9BFE5"/>
<path d="M326.5 478.7L331.5 481.2L289.6 309.4L285 303.5L261.1 291.5L234.7 278.2L278.7 454.7L283.7 457.2L277.5 432.2L320.2 453.8L326.5 478.7ZM298.4 365.9L304.4 390.1L261.7 368.5L255.7 344.3L298.4 365.9ZM254.4 339.3L248.4 315.1L291.1 336.7L297.1 360.9L254.4 339.3ZM305.7 395.1L311.7 419.3L269 397.8L263 373.6L305.7 395.1ZM262.4 296.5L283.8 307.3L289.8 331.5L247.1 310L241.1 285.8L262.4 296.5ZM276.3 427.1L270.3 402.9L313 424.5L319 448.7L276.3 427.1Z" fill="#A9BFE5"/>
<path d="M321.1 481.9L326.1 484.4L284.2 312.6L279.6 306.7L255.8 294.7L229.4 281.4L273.4 457.9L278.4 460.4L272.2 435.4L314.9 457L321.1 481.9ZM292.9 369L298.9 393.2L256.2 371.6L250.2 347.4L292.9 369ZM249 342.4L243 318.2L285.7 339.8L291.7 364L249 342.4ZM300.2 398.3L306.2 422.5L263.6 401L257.6 376.8L300.2 398.3ZM257 299.7L278.4 310.5L284.4 334.7L241.7 313.1L235.7 288.9L257 299.7ZM270.9 430.3L264.9 406.1L307.6 427.7L313.6 451.9L270.9 430.3Z" fill="#4B6FB5"/>
<path d="M202 467L196.7 470.1L200.7 473.5L200.8 473.1L239.7 497.4L241.2 491.4L202 467Z" fill="#A9BFE5"/>
<path d="M268.7 352.3L269.9 345.9L229.8 322.4L224.4 325.7L228.3 330.1L228.6 328.7L268.7 352.3Z" fill="#A9BFE5"/>
<path d="M215.8 395.2L210.4 398.4L214.2 403.8L214.6 401.4L254.9 425.9L256.1 419.6L215.8 395.2Z" fill="#A9BFE5"/>
<path d="M261.8 389.2L263 382.9L222.8 358.9L217.4 362.2L220.8 369.2L221.6 365.2L261.8 389.2Z" fill="#A9BFE5"/>
<path d="M246.5 461.3L248.4 455.5L208.9 431.2L203.5 434.3L207 438.3L207.3 439.3L207.7 437.4L246.5 461.3Z" fill="#A9BFE5"/>
<path d="M229.8 322.4L233.2 305L229 301.8L224.4 325.7L229.8 322.4Z" fill="#4B6FB5"/>
<path d="M210.4 398.4L215.8 395.2L220.5 371L216.2 368.4L210.4 398.4Z" fill="#4B6FB5"/>
<path d="M234.5 297.8L230.2 295.3L229 301.8L233.2 305L234.5 297.8Z" fill="#4B6FB5"/>
<path d="M217.4 362.2L222.8 358.9L227.5 334.5L223.2 332L217.4 362.2Z" fill="#4B6FB5"/>
<path d="M189.7 506.5L195 503.5L199.7 478.8L195.5 476.2L189.7 506.5Z" fill="#4B6FB5"/>
<path d="M280 334L274.5 337.3L236.6 529.8L240.8 532.5L280 334Z" fill="#4B6FB5"/>
<path d="M203.5 434.3L208.9 431.2L213.5 407.2L209.2 404.6L203.5 434.3Z" fill="#4B6FB5"/>
<path d="M229 287.6L238.4 293L278.6 316.3L274.5 337.3L280 334L284.2 312.9L232 282.7L226.5 286.2L229 287.6Z" fill="#4B6FB5"/>
<path d="M196.7 470.1L202 467L206.6 443.1L202.3 440.5L196.7 470.1Z" fill="#4B6FB5"/>
<path d="M224.3 298.1L184.9 503.5L189.7 506.5L224.5 298.3L224.3 298.1Z" fill="#D5DEF3"/>
<path d="M242 498.9L239.7 497.4L241.2 491.4L243.2 492.7L249.1 462.9L246.5 461.3L248.4 455.5L250.3 456.7L256.2 426.7L254.9 425.9L256.1 419.6L257.5 420.4L263.4 390.2L261.8 389.2L263 382.9L264.6 383.9L270.6 353.4L268.7 352.3L269.9 345.9L271.9 347.1L273.9 336.9L269.6 333.6L266.3 350.4L224.4 325.7L228.3 330.1L227.5 334.5L265.1 356.8L259.1 387.1L217.4 362.2L220.8 369.2L220.5 371L257.9 393.4L252 423.6L210.4 398.4L214.2 403.8L213.5 407.2L250.7 429.8L244.9 459.8L203.5 434.3L207 438.3L207.3 439.3L206.6 443.1L243.6 466L237.8 495.7L196.7 470.1L200.7 473.5L199.7 478.8L236.6 501.9L230.6 532.4L235.4 535.5L236.6 529.8L236 529.4L242 498.9Z" fill="#D5DEF3"/>
<path d="M226.5 286.2L224.3 298.1L224.5 298.3L226.5 286.2Z" fill="#D5DEF3"/>
<path d="M273.9 336.9L271.9 347.1L269.9 345.9L268.7 352.3L270.6 353.4L264.6 383.9L263 382.9L261.8 389.2L263.4 390.2L257.5 420.4L256.1 419.6L254.9 425.9L256.2 426.7L250.3 456.7L248.4 455.5L246.5 461.3L249.1 462.9L243.2 492.7L241.2 491.4L239.7 497.4L242 498.9L236 529.4L236.6 529.8L274.5 337.3L273.9 336.9Z" fill="#D5DEF3"/>
<path d="M196.7 470.1L202.3 440.5L206.6 443.1L207.3 439.3L207 438.3L203.5 434.3L209.2 404.6L213.5 407.2L214.2 403.8L210.4 398.4L216.2 368.4L220.5 371L220.8 369.2L217.4 362.2L223.2 332L227.5 334.5L228.3 330.1L224.4 325.7L229 301.8L224.5 298.3L189.7 506.5L195.5 476.2L199.7 478.8L200.7 473.5L196.7 470.1Z" fill="#D5DEF3"/>
<path d="M238.4 293L229 287.6L226.5 286.2L224.5 298.3L229 301.8L230.2 295.3L234.5 297.8L272.3 319.8L269.6 333.6L273.9 336.9L274.5 337.3L278.6 316.3L238.4 293Z" fill="#4B6FB5"/>
<path d="M274.4 337.3L235.4 535.5L240.8 532.4L280 334L274.5 337.3H274.4Z" fill="#A9BFE5"/>
<path d="M278.6 316.3L274.4 337.3H274.5L280 334L284.2 312.9L278.6 316.3Z" fill="#4B6FB5"/>
<path d="M289.6 309.4L284.2 312.5L288.2 329.1L293.6 325.9L289.6 309.4Z" fill="#4B6FB5"/>
<path d="M331.5 481.3L293.6 325.9L288.2 329.1L326.1 484.4L331.5 481.3Z" fill="#A9BFE5"/>
<path d="M285.8 304L216.1 286.9V292.6L281 330.1V324.4L285.8 304Z" fill="#A9BFE5"/>
<path d="M285.8 304L281 324.4V330.1L307.1 315V309.3L285.8 304Z" fill="#4B6FB5"/>
<path d="M281 324.4L216.1 286.9L242.2 271.8L307.1 309.3L281 324.4Z" fill="#D5DEF3"/>
<path d="M593.8 529.2C594.2 529 594.4 528.6 594.4 528.2L593.6 524.5L595 526.1L595.8 528.6C595.9 528.9 596.3 529 596.6 528.7C596.9 528.5 597.1 528.1 597 527.8L596.6 525.7L597.3 527.5C597.5 527.9 597.9 527.9 598.3 527.5C598.6 527.2 598.7 526.9 598.6 526.5L598.5 526.2C599 525.7 599.3 525 599.1 524.5L598.6 523C598.5 522.7 598.4 522.5 598.2 522.3C598.2 522.3 596 518.8 595.6 518.3C595.1 517.5 592 515.9 592 515.9L588.9 514.8L584.7 511.7L583.5 512.9L581.8 512.3C582.2 512.7 582.7 513 583.1 513.2L581.1 515.2L585.7 518.2C585.4 519.6 585.7 520.6 586.7 521.5C586.9 521.7 590.9 523 590.9 523L593.1 528.9C593.3 529.2 593.6 529.3 593.8 529.2Z" fill="#F4A185"/>
<path d="M578.9 491.8L591.5 513.2C591.5 513.2 588.4 518.7 582.9 519.3C582.9 519.3 572.7 507.7 569.4 499.6C566.1 491.5 567.6 489.8 567.6 489.8L578.9 491.8Z" fill="#ED6F21"/>
<path d="M543.8 461.9C542.7 462 541.5 462.2 540.4 462.6C539.9 462.7 539.4 462.9 539 463.1C538 463.6 536.2 464.4 535.3 465.8C534 467.9 531.6 475.6 530.3 482.9C529.5 487.5 528.9 490.8 529.6 493.6L529.5 493.2C529.5 493.2 532.3 515.1 534.5 522.3C534.5 522.3 541.4 525 544.1 523.4C545.4 522.7 544.9 515.3 544.1 507.8C549.7 508.7 543.8 461.9 543.8 461.9Z" fill="#ED6F21"/>
<path d="M554.3 602.2C553.6 601.5 553 599.7 553 599.7C552.7 599.3 554.8 596.5 554.5 596C554 595 551.7 597.4 551.6 596.3C551.5 590.8 552.4 572.9 552.1 569.6C551.9 567.4 545 567.4 543 567.8L542.5 567.7C542.5 567.8 542.5 567.8 542.5 567.9C543.1 570.3 541.3 567.8 541.7 570.3C542.2 573.2 543.1 598.2 543.1 598.4C542.9 600.4 542.7 601.5 542.2 602.1C548.8 608.2 551.1 602.8 551.1 602.8L550.6 602C550.6 601.8 557.3 605.4 554.3 602.2Z" fill="#F4A185"/>
<path d="M561.3 595.9C561.2 595.8 561.2 595.6 561.1 595.4C560.6 593.9 556.5 594.4 554.1 594.9L553.9 595C553.5 595.1 553.1 595.2 552.9 595.2L551.7 595.5C551.7 595.5 551.6 597.5 550.2 598.9C550.2 598.9 551.9 599.3 551.6 599.9L550 600C548.2 600.1 546.3 599.9 544.5 599.5L542.9 599.2C542.9 599.2 542 601.9 541.8 602.8C541.8 602.9 541.8 602.9 541.8 603C541.7 603.3 541.7 603.6 541.7 603.9C541.5 604.8 541.4 605.7 541.3 606.5C541.2 607.6 542.5 610.6 546.7 608.9C550.9 607.2 550.8 606.4 552.9 605.8C555 605.1 562.7 603.8 561.3 595.9Z" fill="#444470"/>
<path d="M572.4 606.3C571.7 605.6 571.1 603.8 571.1 603.8C570.8 603.4 572.9 600.6 572.6 600.1C572.1 599.1 569.8 601.5 569.7 600.4C569.6 594.9 570.5 577 570.2 573.7C570 571.5 563.1 571.5 561.1 571.9L560.6 571.8V572C561.2 574.4 559.4 571.9 559.8 574.4C560.3 577.3 561.2 602.3 561.2 602.5C561 604.5 560.8 605.6 560.3 606.2C566.9 612.3 569.2 606.9 569.2 606.9L568.7 606.1C568.7 606 575.4 609.5 572.4 606.3Z" fill="#F4A185"/>
<path d="M579.4 600.1C579.3 600 579.3 599.8 579.2 599.6C578.7 598.1 574.6 598.6 572.2 599.1L572 599.2C571.6 599.3 571.2 599.4 571 599.4L569.8 599.7C569.8 599.7 569.7 601.7 568.3 603.1C568.3 603.1 570 603.5 569.7 604.1L568 604.2C566.2 604.3 564.3 604.1 562.5 603.7L560.9 603.4C560.9 603.4 560 606.1 559.8 607C559.8 607.1 559.8 607.1 559.8 607.2C559.7 607.5 559.7 607.8 559.7 608.1C559.5 609 559.4 609.9 559.3 610.7C559.2 611.8 560.5 614.8 564.7 613.1C568.9 611.4 568.8 610.6 570.9 610C573 609.3 580.8 607.9 579.4 600.1Z" fill="#444470"/>
<path d="M544.6 554C543 550 540.3 540.1 538.1 531.7L539.5 552.2C539.5 552.2 535 560.2 540 593.3C540 593.3 550.6 595.7 555 590.4C549 585.4 544.6 554 544.6 554Z" fill="#444470"/>
<path d="M563.5 558.5L555.1 538.8L558 557.4C558 557.4 553.7 564.5 558.7 597.6C558.7 597.6 568.8 599.6 573.2 594.4C567.8 592.7 563.5 558.5 563.5 558.5Z" fill="#444470"/>
<path d="M573.2 559.7C575.9 546.5 569 507.5 569 507.5L557.7 505.2L545.4 500.3C545.4 500.3 536.4 509.1 537.8 525.5L538.2 531.5C540.4 539.9 543.1 549.9 544.7 553.8C544.7 553.8 549.1 585.2 555.1 590.2C555.1 590.2 552.4 568.6 555.1 555.4C556.1 550.7 554.9 544.6 555.1 538.7L563.5 558.4C563.5 558.4 567.8 592.6 573.1 594.3C573.2 594.5 570.4 572.9 573.2 559.7Z" fill="#555483"/>
<path d="M556.4 461.6L556 456.9L555.9 456.4C557.6 456 558.8 455.1 559.2 453.7C559.9 451.1 558.1 441.6 558.1 441.6L557.5 437.9L546 437.3L543.7 444.8L545.5 450.7C545.2 451.7 545.4 452.7 546 453.5C546.5 456.1 547.2 460.6 546.9 460.9C546.5 461.3 545 462.2 543.7 462.5C543.7 462.5 544.6 462.7 543.8 462.8C545.9 467.1 550.7 468.6 554.7 468C559.2 467.4 562.8 463 563 462.6L556.4 461.6Z" fill="#F4A185"/>
<path d="M557.4 434.4C556.9 433.9 556.2 433.6 555.5 433.7C555.3 433.7 555 433.6 554.9 433.4C554.5 432.6 553.4 432 552.5 431.9C551.6 431.8 550.7 432.1 550.1 432.8C549.9 433 549.5 433.1 549.3 432.8C548.5 432.2 547.5 432 546.6 432.4C545.7 432.8 545 433.6 544.8 434.5C544.7 434.8 544.4 435 544 434.9C543.6 434.7 543.1 434.7 542.6 434.9C542.5 434.9 542.5 434.9 542.4 435C542 435.2 541.7 435.6 541.5 436C541.4 436.3 541 436.4 540.8 436.3C540.5 436.2 540.3 436.2 540 436.4C539.5 436.6 539.2 437.1 539.1 437.6C539 438.1 539 438.7 539.1 439.2C539.1 438.9 538.5 438.9 538.3 439.1C538.1 439.3 538.1 439.7 538.2 440C538.7 442.8 539.4 445.7 540.5 448.3C541.6 451 543.4 453.9 545.9 455.5C546.8 456 547.1 455.9 548.2 456C548.6 456 549.1 456.1 549.5 456C549.9 456 550.2 456 550.6 456C551.2 456 551.8 456 552.3 456C552.6 456 552.8 456 553.1 456C555.5 455.9 556.7 455.2 556.6 453C556.5 451.2 557.7 448.4 557.6 447.4C557.6 444.1 556.8 442.5 557.7 439.3C557.9 438.5 558.2 437.7 558.2 436.9C558.1 435.9 557.9 435.1 557.4 434.4Z" fill="#444470"/>
<path d="M573.5 470.3C571.6 461.8 564.3 462 564.3 462C563.9 461.9 563.5 461.9 563.1 461.9H559.7C549.4 465.9 543.8 461.9 543.8 461.9C542.7 462 541.5 462.2 540.4 462.6C539.9 462.7 539.4 462.9 539 463.1C538 463.6 536.2 464.4 535.3 465.8C534 467.9 531.6 475.6 530.3 482.9C529.4 487.8 529.1 492.6 530 495.4C530.8 498 532.8 499.2 535.1 499.8L537.7 471.4C537.7 471.4 540.5 496.2 542 499.9L540.9 507.2C540.9 507.2 557.3 510.8 568.9 507.5L567.7 498.6C571.7 502.7 578.5 498.3 579.2 496.2C580.2 493.6 575.4 478.8 573.5 470.3Z" fill="#ED6F21"/>
<path d="M535.3 498.1C537.6 504 538.5 512.4 540.3 512.1C538.8 508.4 537.7 471.4 537.7 471.4L535.3 498.1Z" fill="#E8600C"/>
<path d="M557.7 430.5C556.4 429.8 555.1 429.3 553.7 429C552 428.6 550.2 428.3 548.4 428.3C545.9 428.3 543.5 428.7 541.2 429.5V429.7L537 435.6C535.4 437.9 535.7 441.2 538 442.9C538.4 443.2 538.8 443.4 539.2 443.7C541.7 445.1 545 445.9 548.5 445.9C549.5 445.9 550.5 445.8 551.5 445.7C554.1 445.3 556.5 443.9 558.1 441.9L562.4 436.6C562 434.2 560.4 432.1 557.7 430.5Z" fill="#E8600C"/>
<path d="M545.3 437C545.3 436.8 545.3 436.7 545.3 436.5C545.5 431.8 548 427.9 551.5 426.3C545.4 424.5 539 428.1 537.3 434.2C537 435.1 536.9 436 536.9 436.9C536.9 437.1 536.9 437.2 536.9 437.4C536.9 439 538.1 440.6 540.3 441.9C543.7 443.8 548.7 444.3 552.8 443.3C551.1 443.1 549.6 442.5 548.2 441.6C546.3 440.2 545.4 438.6 545.3 437Z" fill="#F18339"/>
<path d="M559.9 437.2V437.1C559.8 432.1 556.4 427.7 551.6 426.3C548.1 427.9 545.6 431.8 545.4 436.5C545.4 436.7 545.4 436.8 545.4 437C545.4 438.6 546.4 440.2 548.2 441.5C549.6 442.4 551.2 443 552.8 443.2C554.1 442.9 555.4 442.4 556.5 441.8C558.8 440.5 559.9 438.9 559.9 437.2Z" fill="#ED6F21"/>
<path d="M548.7 425.9C548.6 425.9 548.5 425.9 548.4 425.9C544.8 426.4 541.2 433.8 541.2 433.8C541.3 434.2 541.7 434.6 542.2 434.8C542.2 434.7 542.1 434.6 542.1 434.5C542.1 434.5 545.4 427.5 548.7 425.9Z" fill="#D34B1E"/>
<path d="M546 434.9C550.6 428 554 427.8 555.6 428.4C553.6 426.8 551.2 425.9 548.7 425.9C545.4 427.5 542.2 434.6 542.2 434.6C542.2 434.7 542.2 434.8 542.3 434.9C543.1 435.3 543.9 435.5 544.8 435.6C545.2 435.6 545.7 435.4 546 434.9Z" fill="#E5610E"/>
<path d="M570.3 492.2C570.1 490.3 569.9 488.3 569.7 486.3C561 487.8 550.4 488.5 538.9 486.9C538.3 486.8 537.6 486.7 537 486.6C537.2 488.8 537.3 490.9 537.5 492.6C538 492.7 538.4 492.8 538.9 492.8C550.7 494.5 561.4 493.7 570.3 492.2Z" fill="#FFE151"/>
<path d="M569.7 486.3C568.5 474.2 567.4 462.4 567.2 461.9C567.2 461.9 563 461.3 560 461.3C557.4 462.8 554.4 463.6 551.3 463.5C546.2 463.3 544.7 461 544.7 461C544.7 461 539.2 461.4 535.2 464.8C535.2 464.8 536.3 476.9 537.1 486.6C537.7 486.7 538.3 486.8 539 486.9C550.4 488.5 561 487.8 569.7 486.3Z" fill="#F8BC2E"/>
<path d="M538.9 498.4C538.5 498.3 538.1 498.3 537.7 498.2C537.6 499.4 537.3 501.6 536.9 504C537.6 504.1 538.2 504.2 538.9 504.3C551.1 506 562.3 505.1 571.3 503.4C571.1 501.6 570.9 499.6 570.7 497.5C561.8 499.2 550.9 500.1 538.9 498.4Z" fill="#FFE151"/>
<path d="M538.9 492.8C538.4 492.7 538 492.7 537.5 492.6C537.7 495.3 537.8 497.4 537.7 498.1V498.2C538.1 498.3 538.5 498.3 538.9 498.4C550.9 500 561.8 499.2 570.8 497.6C570.6 495.8 570.5 494 570.3 492.1C561.4 493.7 550.7 494.5 538.9 492.8Z" fill="#F8BC2E"/>
<path d="M538.9 504.4C538.2 504.3 537.6 504.2 536.9 504.1C536.3 508.2 535.5 512.7 535.7 513.4C536 514.5 555.2 516.8 572.1 513C572.1 513 571.7 509.1 571.2 503.5C562.3 505.2 551.2 506.1 538.9 504.4Z" fill="#F8BC2E"/>
<path d="M458.4 506L395.2 350.2C391.2 340.3 382.3 334.3 377.2 337.1L359.1 347.5L362.5 355.5L311.9 421.5C307.1 427.7 312.7 442.5 321.9 447.8L427.9 509L437.8 532.3L456 522C460.1 520.2 461.6 513.9 458.4 506Z" fill="#E99004"/>
<path d="M386.9 387.3L376.2 361C371.6 349.8 360.8 343.5 356.3 349.5L308 412.5C334.7 411.2 361.3 403.5 383.3 389.7C384.5 388.9 385.7 388.1 386.9 387.3Z" fill="#F8BC2E"/>
<path d="M409.8 443.9C408 445.1 406.2 446.4 404.3 447.5C380.8 462.2 352.1 470 323.6 470.5L429.4 531.6C438.5 536.9 444.1 528.6 439.4 516.8L409.8 443.9Z" fill="#F8BC2E"/>
<path d="M409.8 443.9L386.9 387.3C385.7 388.1 384.6 388.9 383.4 389.6C361.4 403.4 334.8 411 308.1 412.4L292.9 432.2C288.1 438.4 293.7 453.2 302.9 458.5L323.7 470.5C352.2 470 380.9 462.3 404.4 447.5C406.2 446.3 408 445.1 409.8 443.9Z" fill="#FFD150"/>
<path d="M367.7 426C367.2 422.6 366.6 419.5 366.1 416.7C365.6 413.9 365.1 411.3 364.6 408.8C364.1 406.5 363.7 404.3 363.4 402.2C363.1 400.1 362.7 397.9 362.2 395.7C361.6 391.5 361.3 388.5 361.3 386.6C361.3 383.5 362.2 381.2 363.9 379.8C361.3 378.7 359 378.6 357.1 379.7C354.8 381 353.6 383.5 353.6 387.1C353.6 388.9 353.9 391.9 354.5 396.2C355 398.4 355.4 400.5 355.7 402.7C356 404.9 356.4 407 356.9 409.3C357.4 411.8 357.8 414.4 358.4 417.2C358.9 420 359.5 423.1 360 426.5C360.5 429.9 361.1 433.7 361.7 437.8C362.3 442 363 446.6 363.7 451.8L367.6 454C368.4 448.9 369.1 444.4 369.9 440.4C369.7 439.3 369.6 438.3 369.4 437.2C368.8 433.2 368.2 429.4 367.7 426Z" fill="#E0750C"/>
<path d="M367.6 471.4C366 468.7 365.3 466 365.3 463.3C365.3 461.6 365.6 460.3 366.2 459.4C366.1 459.3 365.9 459.2 365.8 459.2C363.5 457.8 361.5 457.6 360 458.5C358.4 459.4 357.7 461.2 357.7 463.9C357.7 466.6 358.5 469.3 360 472C361.6 474.7 363.5 476.8 365.8 478.1C368.1 479.4 370.1 479.7 371.7 478.7C372.3 478.4 372.8 477.9 373.1 477.3C370.9 475.9 369 474 367.6 471.4Z" fill="#E0750C"/>
<path d="M374.6 419.5C375.6 415.4 376.4 411.8 377 408.8C377.6 405.8 377.9 403.2 377.9 401.2C377.9 397.5 376.7 393.7 374.3 389.7C371.8 385.6 369 382.7 365.8 380.8C365.2 380.4 364.5 380.1 363.9 379.9C362.2 381.3 361.3 383.6 361.3 386.7C361.3 388.5 361.6 391.5 362.2 395.8C362.7 398 363.1 400.1 363.4 402.3C363.7 404.5 364.1 406.6 364.6 408.9C365.1 411.4 365.5 414 366.1 416.8C366.6 419.6 367.2 422.7 367.7 426.1C368.2 429.5 368.8 433.3 369.4 437.4C369.6 438.4 369.7 439.5 369.9 440.6C370.4 437.9 370.9 435.4 371.4 433.2C372.5 427.8 373.6 423.3 374.6 419.5Z" fill="#E99004"/>
<path d="M371.6 465.1C370.1 462.5 368.3 460.6 366.1 459.3C365.5 460.3 365.2 461.6 365.2 463.2C365.2 465.9 366 468.6 367.5 471.3C369 473.9 370.8 475.9 373 477.2C373.6 476.2 373.9 474.9 373.9 473.2C374 470.6 373.2 467.9 371.6 465.1Z" fill="#E99004"/>
<path d="M120.9 663.6L130.3 658.2L142.2 630.8L135.3 628.1L120.9 663.6Z" fill="#4B6FB5"/>
<path d="M145.4 632.6L142.2 630.8L154.1 671.9L157.3 673.7L145.4 632.6Z" fill="#4B6FB5"/>
<path d="M145.4 564.2L144.3 574L136 569.6L129.7 565.9L139 560.5L145.4 564.2Z" fill="#D6EBFB"/>
<path d="M144.3 574L136 638L129.7 634.4V565.9L136 569.6L144.3 574Z" fill="#4B6FB5"/>
<path d="M136 638L145.4 632.6V564.2L136 569.6V638Z" fill="#9FC4E9"/>
<path d="M117.8 661.7L120.9 663.6L132.8 636.2L129.7 634.4L117.8 661.7Z" fill="#4B6FB5"/>
<path d="M136 638L132.8 636.2L144.7 677.3L147.9 679.1L136 638Z" fill="#4B6FB5"/>
<path d="M145.4 632.6L157.3 673.7L147.9 679.1L136 638L145.4 632.6Z" fill="#D6EBFB"/>
<path d="M227.8 602.2L237.2 596.8L249.1 569.5L242.2 566.7L227.8 602.2Z" fill="#4B6FB5"/>
<path d="M252.2 571.3L249.1 569.5L261 610.5L264.1 612.4L252.2 571.3Z" fill="#4B6FB5"/>
<path d="M252.2 508.6L251.2 518.4L242.9 514L236.5 510.3L245.9 504.9L252.2 508.6Z" fill="#D6EBFB"/>
<path d="M251.2 518.4L242.9 576.7L236.5 573V510.3L242.9 514L251.2 518.4Z" fill="#4B6FB5"/>
<path d="M242.9 576.7L252.2 571.3V508.6L242.9 514V576.7Z" fill="#9FC4E9"/>
<path d="M224.6 600.4L227.8 602.2L239.7 574.9L236.5 573L224.6 600.4Z" fill="#4B6FB5"/>
<path d="M242.9 576.7L239.7 574.9L251.6 616L254.8 617.8L242.9 576.7Z" fill="#4B6FB5"/>
<path d="M252.2 571.3L264.1 612.4L254.8 617.8L242.9 576.7L252.2 571.3Z" fill="#D6EBFB"/>
<path d="M140.4 580.1L133.9 583.9L123.2 594.6L119.3 592.3V590.1V571.3V570.1L123.2 572.5L140.4 580.1Z" fill="#E0750C"/>
<path d="M265.5 485.7L269.4 488.1L265.5 499.8V507.9L259.1 511.6L246.1 519.1L234.1 526L221.1 533.6L209 540.5L196 548L184 555L171 562.5L158.9 569.4L145.9 576.9L140.4 580.1L123.2 572.5L119.3 570.1L265.5 485.7Z" fill="#F4980D"/>
<path d="M247.6 500.7L259.6 493.7L247.6 500.7Z" fill="#53527C"/>
<path d="M222.6 515.1L234.6 508.2L222.6 515.1Z" fill="#53527C"/>
<path d="M238 528.4L222.6 515.1L234.6 508.2L250 521.4L238 528.4Z" fill="#242A58"/>
<path d="M212.9 542.8L197.5 529.6L209.5 522.7L225 535.9L212.9 542.8Z" fill="#242A58"/>
<path d="M197.5 529.6L209.5 522.7L197.5 529.6Z" fill="#53527C"/>
<path d="M172.5 544.1L184.5 537.1L172.5 544.1Z" fill="#53527C"/>
<path d="M187.9 557.3L172.5 544.1L184.5 537.1L199.9 550.4L187.9 557.3Z" fill="#242A58"/>
<path d="M147.4 558.5L159.4 551.6L147.4 558.5Z" fill="#53527C"/>
<path d="M162.8 571.8L147.4 558.5L159.4 551.6L174.9 564.8L162.8 571.8Z" fill="#242A58"/>
<path d="M123.2 572.5L134.4 566L123.2 572.5Z" fill="#53527C"/>
<path d="M137.8 586.2L123.2 573.7V572.5L134.4 566L149.8 579.3L137.8 586.2Z" fill="#242A58"/>
<path d="M174.9 564.8L159.4 551.6L172.5 544.1L187.9 557.3L174.9 564.8Z" fill="#F8BC2E"/>
<path d="M149.8 579.3L134.4 566L147.4 558.5L162.8 571.8L149.8 579.3Z" fill="#F8BC2E"/>
<path d="M123.2 573.7L137.8 586.2L123.2 594.6V592.4V573.7Z" fill="#F8BC2E"/>
<path d="M250 521.4L234.6 508.2L247.6 500.7L263.1 513.9L250 521.4Z" fill="#F8BC2E"/>
<path d="M225 535.9L209.5 522.7L222.6 515.1L238 528.4L225 535.9Z" fill="#F8BC2E"/>
<path d="M197.5 529.6L212.9 542.8L199.9 550.4L184.5 537.1L197.5 529.6Z" fill="#F8BC2E"/>
<path d="M199.9 550.4L184.5 537.1L199.9 550.4Z" fill="#F8BC2E"/>
<path d="M247.6 500.7L259.6 493.7L269.4 502.1V510.2L263.1 513.9L247.6 500.7Z" fill="#242A58"/>
<path d="M259.6 493.7L269.4 488.1V502.1L259.6 493.7Z" fill="#F8BC2E"/>
<path d="M140.4 621.3L133.9 625L123.2 635.8L119.3 633.4V631.2V612.5V611.3L123.2 613.6L140.4 621.3Z" fill="#E0750C"/>
<path d="M265.5 526.9L269.4 529.2L265.5 541V549L259.1 552.7L246.1 560.2L234.1 567.2L221.1 574.7L209 581.6L196 589.2L184 596.1L171 603.6L158.9 610.6L145.9 618.1L140.4 621.3L123.2 613.6L119.3 611.3L265.5 526.9Z" fill="#F4980D"/>
<path d="M247.6 541.8L259.6 534.9L247.6 541.8Z" fill="#53527C"/>
<path d="M222.6 556.3L234.6 549.3L222.6 556.3Z" fill="#53527C"/>
<path d="M238 569.5L222.6 556.3L234.6 549.3L250 562.6L238 569.5Z" fill="#242A58"/>
<path d="M212.9 584L197.5 570.7L209.5 563.8L225 577.1L212.9 584Z" fill="#242A58"/>
<path d="M197.5 570.7L209.5 563.8L197.5 570.7Z" fill="#53527C"/>
<path d="M172.5 585.2L184.5 578.3L172.5 585.2Z" fill="#53527C"/>
<path d="M187.9 598.5L172.5 585.2L184.5 578.3L199.9 591.5L187.9 598.5Z" fill="#242A58"/>
<path d="M147.4 599.7L159.4 592.7L147.4 599.7Z" fill="#53527C"/>
<path d="M162.8 612.9L147.4 599.7L159.4 592.7L174.9 606L162.8 612.9Z" fill="#242A58"/>
<path d="M123.2 613.6L134.4 607.2L123.2 613.6Z" fill="#53527C"/>
<path d="M137.8 627.4L123.2 614.8V613.6L134.4 607.2L149.8 620.4L137.8 627.4Z" fill="#242A58"/>
<path d="M174.9 606L159.4 592.7L172.5 585.2L187.9 598.5L174.9 606Z" fill="#F8BC2E"/>
<path d="M149.8 620.4L134.4 607.2L147.4 599.7L162.8 612.9L149.8 620.4Z" fill="#F8BC2E"/>
<path d="M123.2 614.8L137.8 627.4L123.2 635.8V633.6V614.8Z" fill="#F8BC2E"/>
<path d="M250 562.6L234.6 549.3L247.6 541.8L263.1 555.1L250 562.6Z" fill="#F8BC2E"/>
<path d="M225 577.1L209.5 563.8L222.6 556.3L238 569.5L225 577.1Z" fill="#F8BC2E"/>
<path d="M197.5 570.7L212.9 584L199.9 591.5L184.5 578.3L197.5 570.7Z" fill="#F8BC2E"/>
<path d="M199.9 591.5L184.5 578.3L199.9 591.5Z" fill="#F8BC2E"/>
<path d="M247.6 541.8L259.6 534.9L269.4 543.3V551.4L263.1 555.1L247.6 541.8Z" fill="#242A58"/>
<path d="M259.6 534.9L269.4 529.2V543.3L259.6 534.9Z" fill="#F8BC2E"/>
<path d="M733.5 776.6L725.8 772.1L715.9 749.4L721.6 747.1L733.5 776.6Z" fill="#4B6FB5"/>
<path d="M713.2 750.9L715.9 749.4L706 783.5L703.3 785.1L713.2 750.9Z" fill="#4B6FB5"/>
<path d="M713.2 694L714.1 702.2L721 698.5L726.3 695.5L718.5 691L713.2 694Z" fill="#D6EBFB"/>
<path d="M714.1 702.2L721 755.4L726.3 752.4V695.5L721 698.5L714.1 702.2Z" fill="#4B6FB5"/>
<path d="M721 755.4L713.2 750.9V694L721 698.5V755.4Z" fill="#9FC4E9"/>
<path d="M736.2 775.1L733.5 776.6L723.7 753.9L726.3 752.4L736.2 775.1Z" fill="#4B6FB5"/>
<path d="M721 755.4L723.7 753.9L713.8 788L711.1 789.6L721 755.4Z" fill="#4B6FB5"/>
<path d="M713.2 750.9L703.3 785.1L711.1 789.6L721 755.4L713.2 750.9Z" fill="#D6EBFB"/>
<path d="M644.7 725.6L636.9 721.1L627 698.4L632.8 696.1L644.7 725.6Z" fill="#4B6FB5"/>
<path d="M624.4 699.9L627 698.4L617.2 732.5L614.5 734.1L624.4 699.9Z" fill="#4B6FB5"/>
<path d="M624.4 647.8L625.3 655.9L632.2 652.3L637.5 649.2L629.7 644.7L624.4 647.8Z" fill="#D6EBFB"/>
<path d="M625.3 655.9L632.2 704.4L637.5 701.4V649.2L632.2 652.3L625.3 655.9Z" fill="#4B6FB5"/>
<path d="M632.2 704.4L624.4 699.9V647.8L632.2 652.3V704.4Z" fill="#9FC4E9"/>
<path d="M647.4 724.1L644.7 725.6L634.8 702.9L637.5 701.4L647.4 724.1Z" fill="#4B6FB5"/>
<path d="M632.2 704.4L634.8 702.9L624.9 737L622.3 738.6L632.2 704.4Z" fill="#4B6FB5"/>
<path d="M624.4 699.9L614.5 734.1L622.3 738.6L632.2 704.4L624.4 699.9Z" fill="#D6EBFB"/>
<path d="M717.4 707.2L722.8 710.4L731.7 719.3L734.9 717.4V715.5V700V699L731.7 700.9L717.4 707.2Z" fill="#E0750C"/>
<path d="M613.4 628.8L610.1 630.7L613.4 640.5V647.2L618.7 650.3L629.5 656.5L639.5 662.3L650.3 668.5L660.3 674.3L671.2 680.6L681.1 686.3L692 692.6L702 698.3L712.8 704.6L717.4 707.2L731.7 700.9L734.9 699L613.4 628.8Z" fill="#F4980D"/>
<path d="M628.2 641.2L618.3 635.4L628.2 641.2Z" fill="#53527C"/>
<path d="M649.1 653.2L639.1 647.5L649.1 653.2Z" fill="#53527C"/>
<path d="M636.2 664.2L649.1 653.2L639.1 647.5L626.3 658.5L636.2 664.2Z" fill="#242A58"/>
<path d="M657.1 676.3L669.9 665.2L659.9 659.5L647.1 670.5L657.1 676.3Z" fill="#242A58"/>
<path d="M669.9 665.2L659.9 659.5L669.9 665.2Z" fill="#53527C"/>
<path d="M690.7 677.3L680.7 671.5L690.7 677.3Z" fill="#53527C"/>
<path d="M677.9 688.3L690.7 677.3L680.7 671.5L667.9 682.5L677.9 688.3Z" fill="#242A58"/>
<path d="M711.5 689.3L701.6 683.5L711.5 689.3Z" fill="#53527C"/>
<path d="M698.7 700.3L711.5 689.3L701.6 683.5L688.7 694.5L698.7 700.3Z" fill="#242A58"/>
<path d="M731.7 700.9L722.4 695.5L731.7 700.9Z" fill="#53527C"/>
<path d="M719.5 712.3L731.7 701.9V700.9L722.4 695.5L709.6 706.6L719.5 712.3Z" fill="#242A58"/>
<path d="M688.7 694.5L701.6 683.5L690.7 677.3L677.9 688.3L688.7 694.5Z" fill="#F8BC2E"/>
<path d="M709.6 706.6L722.4 695.5L711.5 689.3L698.7 700.3L709.6 706.6Z" fill="#F8BC2E"/>
<path d="M731.7 701.9L719.5 712.3L731.7 719.3V717.5V701.9Z" fill="#F8BC2E"/>
<path d="M626.3 658.5L639.1 647.5L628.2 641.2L615.4 652.2L626.3 658.5Z" fill="#F8BC2E"/>
<path d="M647.1 670.5L659.9 659.5L649.1 653.2L636.2 664.2L647.1 670.5Z" fill="#F8BC2E"/>
<path d="M669.9 665.2L657.1 676.3L667.9 682.5L680.7 671.5L669.9 665.2Z" fill="#F8BC2E"/>
<path d="M667.9 682.5L680.7 671.5L667.9 682.5Z" fill="#F8BC2E"/>
<path d="M628.2 641.2L618.3 635.4L610.1 642.4V649.1L615.4 652.2L628.2 641.2Z" fill="#242A58"/>
<path d="M618.3 635.4L610.1 630.7V642.4L618.3 635.4Z" fill="#F8BC2E"/>
<path d="M717.4 741.5L722.8 744.6L731.7 753.5L734.9 751.6V749.7V734.2V733.2L731.7 735.1L717.4 741.5Z" fill="#E0750C"/>
<path d="M613.4 663L610.1 664.9L613.4 674.7V681.4L618.7 684.5L629.5 690.7L639.5 696.5L650.3 702.8L660.3 708.5L671.2 714.8L681.1 720.5L692 726.8L702 732.6L712.8 738.8L717.4 741.5L731.7 735.1L734.9 733.2L613.4 663Z" fill="#F4980D"/>
<path d="M628.2 675.4L618.3 669.6L628.2 675.4Z" fill="#53527C"/>
<path d="M649.1 687.4L639.1 681.7L649.1 687.4Z" fill="#53527C"/>
<path d="M636.2 698.4L649.1 687.4L639.1 681.7L626.3 692.7L636.2 698.4Z" fill="#242A58"/>
<path d="M657.1 710.5L669.9 699.5L659.9 693.7L647.1 704.7L657.1 710.5Z" fill="#242A58"/>
<path d="M669.9 699.5L659.9 693.7L669.9 699.5Z" fill="#53527C"/>
<path d="M690.7 711.5L680.7 705.7L690.7 711.5Z" fill="#53527C"/>
<path d="M677.9 722.5L690.7 711.5L680.7 705.7L667.9 716.7L677.9 722.5Z" fill="#242A58"/>
<path d="M711.5 723.5L701.6 717.7L711.5 723.5Z" fill="#53527C"/>
<path d="M698.7 734.5L711.5 723.5L701.6 717.7L688.7 728.7L698.7 734.5Z" fill="#242A58"/>
<path d="M731.7 735.1L722.4 729.8L731.7 735.1Z" fill="#53527C"/>
<path d="M719.5 746.5L731.7 736.1V735.1L722.4 729.8L709.6 740.8L719.5 746.5Z" fill="#242A58"/>
<path d="M688.7 728.7L701.6 717.7L690.7 711.5L677.9 722.5L688.7 728.7Z" fill="#F8BC2E"/>
<path d="M709.6 740.8L722.4 729.8L711.5 723.5L698.7 734.5L709.6 740.8Z" fill="#F8BC2E"/>
<path d="M731.7 736.1L719.5 746.5L731.7 753.5V751.7V736.1Z" fill="#F8BC2E"/>
<path d="M626.3 692.7L639.1 681.7L628.2 675.4L615.4 686.4L626.3 692.7Z" fill="#F8BC2E"/>
<path d="M647.1 704.7L659.9 693.7L649.1 687.4L636.2 698.4L647.1 704.7Z" fill="#F8BC2E"/>
<path d="M669.9 699.5L657.1 710.5L667.9 716.7L680.7 705.7L669.9 699.5Z" fill="#F8BC2E"/>
<path d="M667.9 716.7L680.7 705.7L667.9 716.7Z" fill="#F8BC2E"/>
<path d="M628.2 675.4L618.3 669.6L610.1 676.6V683.4L615.4 686.4L628.2 675.4Z" fill="#242A58"/>
<path d="M618.3 669.6L610.1 664.9V676.6L618.3 669.6Z" fill="#F8BC2E"/>
</g>
<defs>
<clipPath id="clip0_1_452">
<rect width="1015" height="1007" fill="white"/>
</clipPath>
</defs>
</svg>
